<svg width="240" height="240" viewBox="0 0 240 240" fill="none" xmlns="http://www.w3.org/2000/svg">
<g clip-path="url(#clip0_119_2)">
<g filter="url(#filter0_f_119_2)">
<circle cx="119.62" cy="119.62" r="72.3797" fill="#FFC701" fill-opacity="0.35"/>
</g>
<circle cx="119.62" cy="121.993" r="69.0067" fill="url(#paint0_linear_119_2)" stroke="url(#paint1_linear_119_2)" stroke-width="2"/>
<mask id="mask0_119_2" style="mask-type:alpha" maskUnits="userSpaceOnUse" x="49" y="91" width="141" height="101">
<path d="M189.627 121.993C189.627 160.657 158.284 192 119.62 192C80.9568 192 49.6138 160.657 49.6138 121.993C49.6138 83.3298 75.6173 92.3295 114.281 92.3295C152.945 92.3295 189.627 83.3298 189.627 121.993Z" fill="url(#paint2_linear_119_2)"/>
</mask>
<g mask="url(#mask0_119_2)">
<g filter="url(#filter1_f_119_2)">
<path fill-rule="evenodd" clip-rule="evenodd" d="M226.41 250.141C226.41 278.319 203.567 301.163 175.389 301.163C175.191 301.163 174.993 301.161 174.795 301.159V301.163H-4.37442L-4.37217 301.16C-4.57034 301.162 -4.76878 301.163 -4.96749 301.163C-33.146 301.163 -55.9893 278.32 -55.9893 250.141C-55.9893 221.963 -33.146 199.12 -4.96749 199.12C19.3214 199.12 39.6462 216.092 44.7946 238.823L62.0726 216.917L116.061 199.119H174.795V199.122C174.993 199.12 175.191 199.119 175.389 199.119C203.567 199.119 226.41 221.962 226.41 250.141Z" fill="#E18700"/>
</g>
</g>
</g>
<defs>
<filter id="filter0_f_119_2" x="-32.7593" y="-32.7593" width="304.759" height="304.759" filterUnits="userSpaceOnUse" color-interpolation-filters="sRGB">
<feFlood flood-opacity="0" result="BackgroundImageFix"/>
<feBlend mode="normal" in="SourceGraphic" in2="BackgroundImageFix" result="shape"/>
<feGaussianBlur stdDeviation="40" result="effect1_foregroundBlur_119_2"/>
</filter>
<filter id="filter1_f_119_2" x="-69.9893" y="185.119" width="310.4" height="130.044" filterUnits="userSpaceOnUse" color-interpolation-filters="sRGB">
<feFlood flood-opacity="0" result="BackgroundImageFix"/>
<feBlend mode="normal" in="SourceGraphic" in2="BackgroundImageFix" result="shape"/>
<feGaussianBlur stdDeviation="7" result="effect1_foregroundBlur_119_2"/>
</filter>
<linearGradient id="paint0_linear_119_2" x1="119.62" y1="51.9868" x2="119.62" y2="192" gradientUnits="userSpaceOnUse">
<stop stop-color="#FFE600"/>
<stop offset="1" stop-color="#FF7A00"/>
</linearGradient>
<linearGradient id="paint1_linear_119_2" x1="119.62" y1="51.9868" x2="119.62" y2="192" gradientUnits="userSpaceOnUse">
<stop stop-color="white"/>
<stop offset="1" stop-color="white" stop-opacity="0"/>
</linearGradient>
<linearGradient id="paint2_linear_119_2" x1="119.62" y1="51.9867" x2="119.62" y2="192" gradientUnits="userSpaceOnUse">
<stop stop-color="#FFD600"/>
<stop offset="1" stop-color="#FF7A00"/>
</linearGradient>
<clipPath id="clip0_119_2">
<rect width="240" height="240" fill="white"/>
</clipPath>
</defs>
</svg>
