<svg width="240" height="240" viewBox="0 0 240 240" fill="none" xmlns="http://www.w3.org/2000/svg">
<g clip-path="url(#clip0_119_371)">
<g filter="url(#filter0_bd_119_371)">
<mask id="path-1-inside-1_119_371" fill="white">
<path fill-rule="evenodd" clip-rule="evenodd" d="M101.269 131.422C101.344 131.423 101.418 131.424 101.493 131.424C112.176 131.424 120.836 122.764 120.836 112.081C120.836 101.398 112.176 92.7377 101.493 92.7377C101.418 92.7377 101.344 92.7381 101.269 92.7389V92.7377H96.2716C96.4521 91.414 96.5453 90.0625 96.5453 88.6892C96.5453 72.2923 83.253 59 66.8561 59C50.4591 59 37.1668 72.2923 37.1668 88.6892C37.1668 90.2364 37.2852 91.7558 37.5133 93.2391C36.1014 92.9111 34.6301 92.7377 33.1184 92.7377C22.4355 92.7377 13.7754 101.398 13.7754 112.081C13.7754 122.764 22.4355 131.424 33.1184 131.424C33.1939 131.424 33.2693 131.423 33.3446 131.422L33.3435 131.424H101.269V131.422Z"/>
</mask>
<path fill-rule="evenodd" clip-rule="evenodd" d="M101.269 131.422C101.344 131.423 101.418 131.424 101.493 131.424C112.176 131.424 120.836 122.764 120.836 112.081C120.836 101.398 112.176 92.7377 101.493 92.7377C101.418 92.7377 101.344 92.7381 101.269 92.7389V92.7377H96.2716C96.4521 91.414 96.5453 90.0625 96.5453 88.6892C96.5453 72.2923 83.253 59 66.8561 59C50.4591 59 37.1668 72.2923 37.1668 88.6892C37.1668 90.2364 37.2852 91.7558 37.5133 93.2391C36.1014 92.9111 34.6301 92.7377 33.1184 92.7377C22.4355 92.7377 13.7754 101.398 13.7754 112.081C13.7754 122.764 22.4355 131.424 33.1184 131.424C33.1939 131.424 33.2693 131.423 33.3446 131.422L33.3435 131.424H101.269V131.422Z" fill="url(#paint0_linear_119_371)" shape-rendering="crispEdges"/>
<path d="M101.269 131.422L101.292 129.423C100.757 129.416 100.243 129.624 99.8628 130C99.4828 130.376 99.2689 130.888 99.2689 131.422H101.269ZM101.269 92.7389H99.2689C99.2689 93.2733 99.4828 93.7855 99.8628 94.1612C100.243 94.5369 100.757 94.7449 101.292 94.7388L101.269 92.7389ZM101.269 92.7377H103.269C103.269 91.6331 102.374 90.7377 101.269 90.7377V92.7377ZM96.2716 92.7377L94.2899 92.4675C94.2119 93.0397 94.3851 93.6178 94.7649 94.0529C95.1447 94.488 95.694 94.7377 96.2716 94.7377V92.7377ZM37.5133 93.2391L37.0607 95.1872C37.7072 95.3375 38.3862 95.1571 38.873 94.7058C39.3598 94.2546 39.5909 93.5912 39.49 92.9351L37.5133 93.2391ZM33.3446 131.422L34.9153 132.66C35.3921 132.055 35.4792 131.23 35.139 130.539C34.7988 129.848 34.0919 129.414 33.3217 129.422L33.3446 131.422ZM33.3435 131.424L31.7728 130.186C31.2985 130.787 31.2097 131.607 31.5441 132.297C31.8785 132.986 32.5773 133.424 33.3435 133.424V131.424ZM101.269 131.424V133.424C102.374 133.424 103.269 132.528 103.269 131.424H101.269ZM101.246 133.422C101.328 133.423 101.411 133.424 101.493 133.424V129.424C101.426 129.424 101.359 129.423 101.292 129.423L101.246 133.422ZM101.493 133.424C113.281 133.424 122.836 123.868 122.836 112.081H118.836C118.836 121.659 111.072 129.424 101.493 129.424V133.424ZM122.836 112.081C122.836 100.293 113.281 90.7377 101.493 90.7377V94.7377C111.072 94.7377 118.836 102.502 118.836 112.081H122.836ZM101.493 90.7377C101.411 90.7377 101.329 90.7381 101.246 90.7391L101.292 94.7388C101.359 94.738 101.426 94.7377 101.493 94.7377V90.7377ZM99.2689 92.7377V92.7389H103.269V92.7377H99.2689ZM96.2716 94.7377H101.269V90.7377H96.2716V94.7377ZM98.2533 93.0079C98.4459 91.5949 98.5453 90.1531 98.5453 88.6892H94.5453C94.5453 89.9719 94.4582 91.2331 94.2899 92.4675L98.2533 93.0079ZM98.5453 88.6892C98.5453 71.1878 84.3576 57 66.8561 57V61C82.1484 61 94.5453 73.3969 94.5453 88.6892H98.5453ZM66.8561 57C49.3546 57 35.1668 71.1878 35.1668 88.6892H39.1668C39.1668 73.3969 51.5637 61 66.8561 61V57ZM35.1668 88.6892C35.1668 90.3385 35.293 91.9596 35.5365 93.5431L39.49 92.9351C39.2773 91.5521 39.1668 90.1342 39.1668 88.6892H35.1668ZM37.9659 91.291C36.4066 90.9287 34.7836 90.7377 33.1184 90.7377V94.7377C34.4767 94.7377 35.7961 94.8934 37.0607 95.1872L37.9659 91.291ZM33.1184 90.7377C21.331 90.7377 11.7754 100.293 11.7754 112.081H15.7754C15.7754 102.502 23.5401 94.7377 33.1184 94.7377V90.7377ZM11.7754 112.081C11.7754 123.868 21.331 133.424 33.1184 133.424V129.424C23.5401 129.424 15.7754 121.659 15.7754 112.081H11.7754ZM33.1184 133.424C33.2016 133.424 33.2846 133.423 33.3675 133.422L33.3217 129.422C33.254 129.423 33.1862 129.424 33.1184 129.424V133.424ZM34.9142 132.662L34.9153 132.66L31.7738 130.184L31.7728 130.186L34.9142 132.662ZM101.269 129.424H33.3435V133.424H101.269V129.424ZM99.2689 131.422V131.424H103.269V131.422H99.2689Z" fill="url(#paint1_linear_119_371)" mask="url(#path-1-inside-1_119_371)"/>
</g>
<g filter="url(#filter1_bd_119_371)">
<mask id="path-3-inside-2_119_371" fill="white">
<path fill-rule="evenodd" clip-rule="evenodd" d="M159.74 180.998C159.844 180.999 159.947 181 160.051 181C174.833 181 186.816 169.017 186.816 154.235C186.816 139.453 174.833 127.469 160.051 127.469C159.947 127.469 159.844 127.47 159.74 127.471V127.469H152.825C153.075 125.638 153.204 123.768 153.204 121.867C153.204 99.1787 134.811 80.7858 112.122 80.7858C89.4336 80.7858 71.0408 99.1787 71.0408 121.867C71.0408 124.008 71.2045 126.111 71.5201 128.163C69.5664 127.709 67.5306 127.469 65.4387 127.469C50.6567 127.469 38.6734 139.453 38.6734 154.235C38.6734 169.017 50.6567 181 65.4387 181C65.5432 181 65.6475 180.999 65.7517 180.998L65.7503 181H159.74V180.998Z"/>
</mask>
<path fill-rule="evenodd" clip-rule="evenodd" d="M159.74 180.998C159.844 180.999 159.947 181 160.051 181C174.833 181 186.816 169.017 186.816 154.235C186.816 139.453 174.833 127.469 160.051 127.469C159.947 127.469 159.844 127.47 159.74 127.471V127.469H152.825C153.075 125.638 153.204 123.768 153.204 121.867C153.204 99.1787 134.811 80.7858 112.122 80.7858C89.4336 80.7858 71.0408 99.1787 71.0408 121.867C71.0408 124.008 71.2045 126.111 71.5201 128.163C69.5664 127.709 67.5306 127.469 65.4387 127.469C50.6567 127.469 38.6734 139.453 38.6734 154.235C38.6734 169.017 50.6567 181 65.4387 181C65.5432 181 65.6475 180.999 65.7517 180.998L65.7503 181H159.74V180.998Z" fill="url(#paint2_linear_119_371)" shape-rendering="crispEdges"/>
<path d="M159.74 180.998L159.763 178.998C159.228 178.992 158.714 179.2 158.334 179.576C157.954 179.952 157.74 180.464 157.74 180.998H159.74ZM159.74 127.471H157.74C157.74 128.005 157.954 128.518 158.334 128.893C158.714 129.269 159.228 129.477 159.763 129.471L159.74 127.471ZM159.74 127.469H161.74C161.74 126.365 160.845 125.469 159.74 125.469V127.469ZM152.825 127.469L150.844 127.199C150.765 127.771 150.939 128.349 151.318 128.785C151.698 129.22 152.248 129.469 152.825 129.469V127.469ZM71.52 128.163L71.0674 130.111C71.714 130.262 72.3929 130.081 72.8797 129.63C73.3665 129.179 73.5977 128.515 73.4968 127.859L71.52 128.163ZM65.7516 180.998L67.3222 182.236C67.7991 181.631 67.8862 180.806 67.546 180.115C67.2059 179.424 66.499 178.989 65.7287 178.998L65.7516 180.998ZM65.7502 181L64.1795 179.762C63.7051 180.364 63.6163 181.183 63.9507 181.873C64.2851 182.562 64.9839 183 65.7502 183V181ZM159.74 181V183C160.845 183 161.74 182.104 161.74 181H159.74ZM159.717 182.998C159.828 182.999 159.939 183 160.051 183V179C159.955 179 159.859 178.999 159.763 178.998L159.717 182.998ZM160.051 183C175.937 183 188.816 170.121 188.816 154.235H184.816C184.816 167.912 173.728 179 160.051 179V183ZM188.816 154.235C188.816 138.348 175.937 125.469 160.051 125.469V129.469C173.728 129.469 184.816 140.557 184.816 154.235H188.816ZM160.051 125.469C159.939 125.469 159.828 125.47 159.717 125.471L159.763 129.471C159.859 129.47 159.955 129.469 160.051 129.469V125.469ZM157.74 127.469V127.471H161.74V127.469H157.74ZM152.825 129.469H159.74V125.469H152.825V129.469ZM154.807 127.739C155.069 125.819 155.204 123.858 155.204 121.868H151.204C151.204 123.677 151.081 125.457 150.844 127.199L154.807 127.739ZM155.204 121.868C155.204 98.0742 135.916 78.7859 112.122 78.7859V82.7859C133.706 82.7859 151.204 100.283 151.204 121.868H155.204ZM112.122 78.7859C88.329 78.7859 69.0407 98.0742 69.0407 121.868H73.0407C73.0407 100.283 90.5381 82.7859 112.122 82.7859V78.7859ZM69.0407 121.868C69.0407 124.11 69.2122 126.315 69.5433 128.467L73.4968 127.859C73.1966 125.907 73.0407 123.906 73.0407 121.868H69.0407ZM71.9727 126.215C69.8716 125.727 67.6839 125.469 65.4386 125.469V129.469C67.3771 129.469 69.261 129.692 71.0674 130.111L71.9727 126.215ZM65.4386 125.469C49.552 125.469 36.6733 138.348 36.6733 154.235H40.6733C40.6733 140.557 51.7611 129.469 65.4386 129.469V125.469ZM36.6733 154.235C36.6733 170.121 49.552 183 65.4386 183V179C51.7611 179 40.6733 167.912 40.6733 154.235H36.6733ZM65.4386 183C65.5508 183 65.6627 182.999 65.7744 182.998L65.7287 178.998C65.6321 178.999 65.5354 179 65.4386 179V183ZM67.3208 182.238L67.3222 182.236L64.1809 179.76L64.1795 179.762L67.3208 182.238ZM159.74 179H65.7502V183H159.74V179ZM157.74 180.998V181H161.74V180.998H157.74Z" fill="url(#paint3_linear_119_371)" mask="url(#path-3-inside-2_119_371)"/>
</g>
<g filter="url(#filter2_bd_119_371)">
<mask id="path-5-inside-3_119_371" fill="white">
<path fill-rule="evenodd" clip-rule="evenodd" d="M208.33 153.208C208.405 153.209 208.48 153.21 208.555 153.21C219.238 153.21 227.898 144.549 227.898 133.867C227.898 123.184 219.238 114.524 208.555 114.524C208.48 114.524 208.405 114.524 208.33 114.525V114.524H203.333C203.514 113.2 203.607 111.848 203.607 110.475C203.607 94.0782 190.314 80.7858 173.918 80.7858C157.521 80.7858 144.228 94.0782 144.228 110.475C144.228 112.022 144.347 113.542 144.575 115.025C143.163 114.697 141.692 114.524 140.18 114.524C129.497 114.524 120.837 123.184 120.837 133.867C120.837 144.549 129.497 153.21 140.18 153.21C140.255 153.21 140.331 153.209 140.406 153.208L140.405 153.21H208.33V153.208Z"/>
</mask>
<path fill-rule="evenodd" clip-rule="evenodd" d="M208.33 153.208C208.405 153.209 208.48 153.21 208.555 153.21C219.238 153.21 227.898 144.549 227.898 133.867C227.898 123.184 219.238 114.524 208.555 114.524C208.48 114.524 208.405 114.524 208.33 114.525V114.524H203.333C203.514 113.2 203.607 111.848 203.607 110.475C203.607 94.0782 190.314 80.7858 173.918 80.7858C157.521 80.7858 144.228 94.0782 144.228 110.475C144.228 112.022 144.347 113.542 144.575 115.025C143.163 114.697 141.692 114.524 140.18 114.524C129.497 114.524 120.837 123.184 120.837 133.867C120.837 144.549 129.497 153.21 140.18 153.21C140.255 153.21 140.331 153.209 140.406 153.208L140.405 153.21H208.33V153.208Z" fill="url(#paint4_linear_119_371)" shape-rendering="crispEdges"/>
<path d="M208.33 153.208L208.353 151.208C207.819 151.202 207.304 151.41 206.924 151.786C206.544 152.162 206.33 152.674 206.33 153.208H208.33ZM208.33 114.525H206.33C206.33 115.059 206.544 115.571 206.924 115.947C207.304 116.323 207.819 116.531 208.353 116.525L208.33 114.525ZM208.33 114.524H210.33C210.33 113.419 209.435 112.524 208.33 112.524V114.524ZM203.333 114.524L201.351 114.253C201.273 114.826 201.447 115.404 201.826 115.839C202.206 116.274 202.756 116.524 203.333 116.524V114.524ZM144.575 115.025L144.122 116.973C144.769 117.123 145.448 116.943 145.934 116.492C146.421 116.04 146.652 115.377 146.552 114.721L144.575 115.025ZM140.406 153.208L141.977 154.446C142.454 153.841 142.541 153.016 142.201 152.325C141.86 151.634 141.153 151.2 140.383 151.208L140.406 153.208ZM140.405 153.21L138.834 151.971C138.36 152.573 138.271 153.393 138.606 154.082C138.94 154.772 139.639 155.21 140.405 155.21V153.21ZM208.33 153.21V155.21C209.435 155.21 210.33 154.314 210.33 153.21H208.33ZM208.308 155.208C208.39 155.209 208.472 155.21 208.555 155.21V151.21C208.488 151.21 208.42 151.209 208.353 151.208L208.308 155.208ZM208.555 155.21C220.342 155.21 229.898 145.654 229.898 133.867H225.898C225.898 143.445 218.133 151.21 208.555 151.21V155.21ZM229.898 133.867C229.898 122.079 220.342 112.524 208.555 112.524V116.524C218.133 116.524 225.898 124.288 225.898 133.867H229.898ZM208.555 112.524C208.472 112.524 208.39 112.524 208.308 112.525L208.353 116.525C208.42 116.524 208.488 116.524 208.555 116.524V112.524ZM206.33 114.524V114.525H210.33V114.524H206.33ZM203.333 116.524H208.33V112.524H203.333V116.524ZM205.315 114.794C205.507 113.381 205.607 111.939 205.607 110.475H201.607C201.607 111.758 201.52 113.019 201.351 114.253L205.315 114.794ZM205.607 110.475C205.607 92.9736 191.419 78.7859 173.918 78.7859V82.7859C189.21 82.7859 201.607 95.1828 201.607 110.475H205.607ZM173.918 78.7859C156.416 78.7859 142.228 92.9736 142.228 110.475H146.228C146.228 95.1828 158.625 82.7859 173.918 82.7859V78.7859ZM142.228 110.475C142.228 112.124 142.355 113.745 142.598 115.329L146.552 114.721C146.339 113.338 146.228 111.92 146.228 110.475H142.228ZM145.027 113.077C143.468 112.715 141.845 112.524 140.18 112.524V116.524C141.538 116.524 142.858 116.679 144.122 116.973L145.027 113.077ZM140.18 112.524C128.392 112.524 118.837 122.079 118.837 133.867H122.837C122.837 124.288 130.602 116.524 140.18 116.524V112.524ZM118.837 133.867C118.837 145.654 128.392 155.21 140.18 155.21V151.21C130.602 151.21 122.837 143.445 122.837 133.867H118.837ZM140.18 155.21C140.263 155.21 140.346 155.209 140.429 155.208L140.383 151.208C140.315 151.209 140.248 151.21 140.18 151.21V155.21ZM141.976 154.448L141.977 154.446L138.835 151.97L138.834 151.971L141.976 154.448ZM208.33 151.21H140.405V155.21H208.33V151.21ZM206.33 153.208V153.21H210.33V153.208H206.33Z" fill="url(#paint5_linear_119_371)" mask="url(#path-5-inside-3_119_371)"/>
</g>
</g>
<defs>
<filter id="filter0_bd_119_371" x="-6.22461" y="45" width="157.061" height="126.424" filterUnits="userSpaceOnUse" color-interpolation-filters="sRGB">
<feFlood flood-opacity="0" result="BackgroundImageFix"/>
<feGaussianBlur in="BackgroundImageFix" stdDeviation="7"/>
<feComposite in2="SourceAlpha" operator="in" result="effect1_backgroundBlur_119_371"/>
<feColorMatrix in="SourceAlpha" type="matrix" values="0 0 0 0 0 0 0 0 0 0 0 0 0 0 0 0 0 0 127 0" result="hardAlpha"/>
<feOffset dx="5" dy="15"/>
<feGaussianBlur stdDeviation="12.5"/>
<feComposite in2="hardAlpha" operator="out"/>
<feColorMatrix type="matrix" values="0 0 0 0 0.113438 0 0 0 0 0.148981 0 0 0 0 0.275 0 0 0 0.25 0"/>
<feBlend mode="normal" in2="effect1_backgroundBlur_119_371" result="effect2_dropShadow_119_371"/>
<feBlend mode="normal" in="SourceGraphic" in2="effect2_dropShadow_119_371" result="shape"/>
</filter>
<filter id="filter1_bd_119_371" x="6.67334" y="66.7859" width="198.143" height="154.214" filterUnits="userSpaceOnUse" color-interpolation-filters="sRGB">
<feFlood flood-opacity="0" result="BackgroundImageFix"/>
<feGaussianBlur in="BackgroundImageFix" stdDeviation="7"/>
<feComposite in2="SourceAlpha" operator="in" result="effect1_backgroundBlur_119_371"/>
<feColorMatrix in="SourceAlpha" type="matrix" values="0 0 0 0 0 0 0 0 0 0 0 0 0 0 0 0 0 0 127 0" result="hardAlpha"/>
<feOffset dx="-7" dy="15"/>
<feGaussianBlur stdDeviation="12.5"/>
<feComposite in2="hardAlpha" operator="out"/>
<feColorMatrix type="matrix" values="0 0 0 0 0.113725 0 0 0 0 0.14902 0 0 0 0 0.27451 0 0 0 0.25 0"/>
<feBlend mode="normal" in2="effect1_backgroundBlur_119_371" result="effect2_dropShadow_119_371"/>
<feBlend mode="normal" in="SourceGraphic" in2="effect2_dropShadow_119_371" result="shape"/>
</filter>
<filter id="filter2_bd_119_371" x="49.8369" y="45.7859" width="207.061" height="172.424" filterUnits="userSpaceOnUse" color-interpolation-filters="sRGB">
<feFlood flood-opacity="0" result="BackgroundImageFix"/>
<feGaussianBlur in="BackgroundImageFix" stdDeviation="7"/>
<feComposite in2="SourceAlpha" operator="in" result="effect1_backgroundBlur_119_371"/>
<feColorMatrix in="SourceAlpha" type="matrix" values="0 0 0 0 0 0 0 0 0 0 0 0 0 0 0 0 0 0 127 0" result="hardAlpha"/>
<feOffset dx="-21" dy="15"/>
<feGaussianBlur stdDeviation="25"/>
<feComposite in2="hardAlpha" operator="out"/>
<feColorMatrix type="matrix" values="0 0 0 0 0.113438 0 0 0 0 0.148981 0 0 0 0 0.275 0 0 0 0.25 0"/>
<feBlend mode="normal" in2="effect1_backgroundBlur_119_371" result="effect2_dropShadow_119_371"/>
<feBlend mode="normal" in="SourceGraphic" in2="effect2_dropShadow_119_371" result="shape"/>
</filter>
<linearGradient id="paint0_linear_119_371" x1="72.2855" y1="61.1786" x2="72.2855" y2="139.607" gradientUnits="userSpaceOnUse">
<stop stop-color="white"/>
<stop offset="1" stop-color="white" stop-opacity="0"/>
</linearGradient>
<linearGradient id="paint1_linear_119_371" x1="67.3059" y1="59" x2="67.3059" y2="131.424" gradientUnits="userSpaceOnUse">
<stop stop-color="white"/>
<stop offset="1" stop-color="white" stop-opacity="0"/>
</linearGradient>
<linearGradient id="paint2_linear_119_371" x1="112.745" y1="48.7298" x2="112.745" y2="195.005" gradientUnits="userSpaceOnUse">
<stop stop-color="white"/>
<stop offset="1" stop-color="white" stop-opacity="0"/>
</linearGradient>
<linearGradient id="paint3_linear_119_371" x1="112.745" y1="80.7859" x2="112.745" y2="181" gradientUnits="userSpaceOnUse">
<stop stop-color="white"/>
<stop offset="1" stop-color="white" stop-opacity="0"/>
</linearGradient>
<linearGradient id="paint4_linear_119_371" x1="179.347" y1="82.9645" x2="179.347" y2="161.393" gradientUnits="userSpaceOnUse">
<stop stop-color="white"/>
<stop offset="1" stop-color="white" stop-opacity="0"/>
</linearGradient>
<linearGradient id="paint5_linear_119_371" x1="174.367" y1="80.7859" x2="174.367" y2="153.21" gradientUnits="userSpaceOnUse">
<stop stop-color="white"/>
<stop offset="1" stop-color="white" stop-opacity="0"/>
</linearGradient>
<clipPath id="clip0_119_371">
<rect width="240" height="240" fill="white"/>
</clipPath>
</defs>
</svg>
