<svg width="240" height="240" viewBox="0 0 240 240" fill="none" xmlns="http://www.w3.org/2000/svg">
<g clip-path="url(#clip0_119_317)">
<g filter="url(#filter0_bdd_119_317)">
<mask id="path-1-inside-1_119_317" fill="white">
<path fill-rule="evenodd" clip-rule="evenodd" d="M151.407 24.0685C154.844 23.4562 156.933 27.5247 155.126 30.5115C145.728 46.0436 144.371 65.946 153.284 83.274C165.152 106.347 191.323 117.263 215.399 110.763C218.772 109.852 222.105 112.99 220.562 116.125C214.663 128.112 205.002 138.378 192.209 144.958C160.529 161.253 121.637 148.781 105.341 117.101C89.0456 85.4204 101.518 46.5282 133.198 30.2327C139.083 27.2059 145.216 25.1716 151.407 24.0685Z"/>
</mask>
<path fill-rule="evenodd" clip-rule="evenodd" d="M151.407 24.0685C154.844 23.4562 156.933 27.5247 155.126 30.5115C145.728 46.0436 144.371 65.946 153.284 83.274C165.152 106.347 191.323 117.263 215.399 110.763C218.772 109.852 222.105 112.99 220.562 116.125C214.663 128.112 205.002 138.378 192.209 144.958C160.529 161.253 121.637 148.781 105.341 117.101C89.0456 85.4204 101.518 46.5282 133.198 30.2327C139.083 27.2059 145.216 25.1716 151.407 24.0685Z" fill="url(#paint0_linear_119_317)"/>
<path d="M215.399 110.763L214.878 108.832L215.399 110.763ZM220.562 116.125L222.357 117.008L220.562 116.125ZM155.126 30.5115L153.415 29.4761L155.126 30.5115ZM155.063 82.3592C146.481 65.6743 147.783 46.5096 156.837 31.5469L153.415 29.4761C143.672 45.5776 142.262 66.2177 151.506 84.1888L155.063 82.3592ZM214.878 108.832C191.693 115.091 166.491 104.577 155.063 82.3592L151.506 84.1888C163.814 108.118 190.953 119.434 215.921 112.694L214.878 108.832ZM218.768 115.242C213.052 126.857 203.693 136.802 191.294 143.179L193.124 146.736C206.312 139.953 216.275 129.367 222.357 117.008L218.768 115.242ZM191.294 143.179C160.596 158.97 122.91 146.884 107.12 116.186L103.563 118.016C120.363 150.678 160.461 163.537 193.124 146.736L191.294 143.179ZM107.12 116.186C91.3293 85.4878 103.415 47.8015 134.113 32.0112L132.283 28.4542C99.6205 45.2549 86.7618 85.353 103.563 118.016L107.12 116.186ZM134.113 32.0112C139.818 29.0767 145.761 27.106 151.758 26.0375L151.056 22.0996C144.671 23.2372 138.347 25.3351 132.283 28.4542L134.113 32.0112ZM215.921 112.694C216.875 112.436 217.823 112.754 218.41 113.341C218.959 113.891 219.106 114.554 218.768 115.242L222.357 117.008C223.561 114.562 222.813 112.089 221.239 110.513C219.701 108.975 217.297 108.179 214.878 108.832L215.921 112.694ZM156.837 31.5469C158.133 29.4049 158.035 26.8756 156.984 24.973C155.907 23.0246 153.739 21.6215 151.056 22.0996L151.758 26.0375C152.512 25.9032 153.107 26.2282 153.483 26.9076C153.883 27.6329 153.926 28.6313 153.415 29.4761L156.837 31.5469Z" fill="url(#paint1_linear_119_317)" mask="url(#path-1-inside-1_119_317)"/>
</g>
<g filter="url(#filter1_bd_119_317)">
<mask id="path-3-inside-2_119_317" fill="white">
<path fill-rule="evenodd" clip-rule="evenodd" d="M160.431 200.471C160.551 200.473 160.672 200.473 160.793 200.473C177.939 200.473 191.839 186.573 191.839 169.427C191.839 152.28 177.939 138.38 160.793 138.38C160.672 138.38 160.551 138.381 160.431 138.382V138.38H152.411C152.7 136.255 152.85 134.086 152.85 131.882C152.85 105.564 131.515 84.229 105.197 84.229C78.8793 84.229 57.5444 105.564 57.5444 131.882C57.5444 134.365 57.7343 136.804 58.1005 139.185C55.8343 138.659 53.4729 138.38 51.0466 138.38C33.9 138.38 20 152.28 20 169.427C20 186.573 33.9 200.473 51.0466 200.473C51.1674 200.473 51.288 200.473 51.4085 200.471L51.4069 200.473H160.431V200.471Z"/>
</mask>
<path fill-rule="evenodd" clip-rule="evenodd" d="M160.431 200.471C160.551 200.473 160.672 200.473 160.793 200.473C177.939 200.473 191.839 186.573 191.839 169.427C191.839 152.28 177.939 138.38 160.793 138.38C160.672 138.38 160.551 138.381 160.431 138.382V138.38H152.411C152.7 136.255 152.85 134.086 152.85 131.882C152.85 105.564 131.515 84.229 105.197 84.229C78.8793 84.229 57.5444 105.564 57.5444 131.882C57.5444 134.365 57.7343 136.804 58.1005 139.185C55.8343 138.659 53.4729 138.38 51.0466 138.38C33.9 138.38 20 152.28 20 169.427C20 186.573 33.9 200.473 51.0466 200.473C51.1674 200.473 51.288 200.473 51.4085 200.471L51.4069 200.473H160.431V200.471Z" fill="url(#paint2_linear_119_317)" shape-rendering="crispEdges"/>
<path d="M160.431 200.471L160.453 198.471C159.919 198.465 159.405 198.673 159.025 199.049C158.645 199.425 158.431 199.937 158.431 200.471H160.431ZM160.431 138.382H158.431C158.431 138.917 158.645 139.429 159.025 139.805C159.405 140.18 159.919 140.388 160.454 140.382L160.431 138.382ZM160.431 138.38H162.431C162.431 137.276 161.535 136.38 160.431 136.38V138.38ZM152.411 138.38L150.429 138.11C150.351 138.682 150.524 139.26 150.904 139.695C151.284 140.131 151.833 140.38 152.411 140.38V138.38ZM58.1005 139.185L57.6479 141.133C58.2945 141.283 58.9734 141.103 59.4602 140.652C59.947 140.2 60.1782 139.537 60.0773 138.881L58.1005 139.185ZM51.4085 200.471L52.9789 201.71C53.456 201.105 53.5432 200.28 53.2032 199.588C52.8631 198.897 52.1561 198.463 51.3858 198.471L51.4085 200.471ZM51.4069 200.473L49.8366 199.235C49.362 199.836 49.273 200.656 49.6073 201.346C49.9417 202.035 50.6406 202.473 51.4069 202.473V200.473ZM160.431 200.473V202.473C161.535 202.473 162.431 201.578 162.431 200.473H160.431ZM160.408 202.471C160.536 202.473 160.664 202.473 160.793 202.473V198.473C160.679 198.473 160.566 198.473 160.453 198.471L160.408 202.471ZM160.793 202.473C179.044 202.473 193.839 187.678 193.839 169.427H189.839C189.839 185.469 176.834 198.473 160.793 198.473V202.473ZM193.839 169.427C193.839 151.176 179.044 136.38 160.793 136.38V140.38C176.834 140.38 189.839 153.385 189.839 169.427H193.839ZM160.793 136.38C160.664 136.38 160.536 136.381 160.408 136.382L160.454 140.382C160.566 140.381 160.679 140.38 160.793 140.38V136.38ZM158.431 138.38V138.382H162.431V138.38H158.431ZM152.411 140.38H160.431V136.38H152.411V140.38ZM154.392 138.65C154.694 136.436 154.85 134.177 154.85 131.882H150.85C150.85 133.995 150.707 136.075 150.429 138.11L154.392 138.65ZM154.85 131.882C154.85 104.459 132.62 82.229 105.197 82.229V86.229C130.411 86.229 150.85 106.668 150.85 131.882H154.85ZM105.197 82.229C77.7747 82.229 55.5444 104.459 55.5444 131.882H59.5444C59.5444 106.668 79.9838 86.229 105.197 86.229V82.229ZM55.5444 131.882C55.5444 134.467 55.7422 137.008 56.1238 139.489L60.0773 138.881C59.7265 136.6 59.5444 134.263 59.5444 131.882H55.5444ZM58.5531 137.237C56.1396 136.676 53.6264 136.38 51.0466 136.38V140.38C53.3195 140.38 55.5291 140.641 57.6479 141.133L58.5531 137.237ZM51.0466 136.38C32.7954 136.38 18 151.176 18 169.427H22C22 153.385 35.0046 140.38 51.0466 140.38V136.38ZM18 169.427C18 187.678 32.7954 202.473 51.0466 202.473V198.473C35.0046 198.473 22 185.469 22 169.427H18ZM51.0466 202.473C51.175 202.473 51.3033 202.473 51.4313 202.471L51.3858 198.471C51.2728 198.473 51.1597 198.473 51.0466 198.473V202.473ZM52.9772 201.712L52.9789 201.71L49.8382 199.233L49.8366 199.235L52.9772 201.712ZM160.431 198.473H51.4069V202.473H160.431V198.473ZM158.431 200.471V200.473H162.431V200.471H158.431Z" fill="url(#paint3_linear_119_317)" mask="url(#path-3-inside-2_119_317)"/>
</g>
</g>
<defs>
<filter id="filter0_bdd_119_317" x="27.1841" y="-13.9932" width="231.766" height="231.108" filterUnits="userSpaceOnUse" color-interpolation-filters="sRGB">
<feFlood flood-opacity="0" result="BackgroundImageFix"/>
<feGaussianBlur in="BackgroundImageFix" stdDeviation="7"/>
<feComposite in2="SourceAlpha" operator="in" result="effect1_backgroundBlur_119_317"/>
<feColorMatrix in="SourceAlpha" type="matrix" values="0 0 0 0 0 0 0 0 0 0 0 0 0 0 0 0 0 0 127 0" result="hardAlpha"/>
<feOffset dx="-21" dy="15"/>
<feGaussianBlur stdDeviation="25"/>
<feComposite in2="hardAlpha" operator="out"/>
<feColorMatrix type="matrix" values="0 0 0 0 0.113438 0 0 0 0 0.148981 0 0 0 0 0.275 0 0 0 0.25 0"/>
<feBlend mode="normal" in2="effect1_backgroundBlur_119_317" result="effect2_dropShadow_119_317"/>
<feColorMatrix in="SourceAlpha" type="matrix" values="0 0 0 0 0 0 0 0 0 0 0 0 0 0 0 0 0 0 127 0" result="hardAlpha"/>
<feOffset/>
<feGaussianBlur stdDeviation="19"/>
<feComposite in2="hardAlpha" operator="out"/>
<feColorMatrix type="matrix" values="0 0 0 0 0.619608 0 0 0 0 0.423529 0 0 0 0 1 0 0 0 0.4 0"/>
<feBlend mode="normal" in2="effect2_dropShadow_119_317" result="effect3_dropShadow_119_317"/>
<feBlend mode="normal" in="SourceGraphic" in2="effect3_dropShadow_119_317" result="shape"/>
</filter>
<filter id="filter1_bd_119_317" x="-6" y="70.229" width="221.839" height="170.244" filterUnits="userSpaceOnUse" color-interpolation-filters="sRGB">
<feFlood flood-opacity="0" result="BackgroundImageFix"/>
<feGaussianBlur in="BackgroundImageFix" stdDeviation="7"/>
<feComposite in2="SourceAlpha" operator="in" result="effect1_backgroundBlur_119_317"/>
<feColorMatrix in="SourceAlpha" type="matrix" values="0 0 0 0 0 0 0 0 0 0 0 0 0 0 0 0 0 0 127 0" result="hardAlpha"/>
<feOffset dx="-1" dy="15"/>
<feGaussianBlur stdDeviation="12.5"/>
<feComposite in2="hardAlpha" operator="out"/>
<feColorMatrix type="matrix" values="0 0 0 0 0.113438 0 0 0 0 0.148981 0 0 0 0 0.275 0 0 0 0.25 0"/>
<feBlend mode="normal" in2="effect1_backgroundBlur_119_317" result="effect2_dropShadow_119_317"/>
<feBlend mode="normal" in="SourceGraphic" in2="effect2_dropShadow_119_317" result="shape"/>
</filter>
<linearGradient id="paint0_linear_119_317" x1="120.653" y1="37.9637" x2="179.664" y2="152.689" gradientUnits="userSpaceOnUse">
<stop offset="0.0001" stop-color="#D4C0FF"/>
<stop offset="1" stop-color="#7E2FFF"/>
</linearGradient>
<linearGradient id="paint1_linear_119_317" x1="126.742" y1="-24.9473" x2="163.045" y2="125.622" gradientUnits="userSpaceOnUse">
<stop stop-color="white"/>
<stop offset="1" stop-color="white" stop-opacity="0"/>
</linearGradient>
<linearGradient id="paint2_linear_119_317" x1="113.912" y1="87.7257" x2="113.912" y2="213.608" gradientUnits="userSpaceOnUse">
<stop stop-color="white"/>
<stop offset="1" stop-color="white" stop-opacity="0"/>
</linearGradient>
<linearGradient id="paint3_linear_119_317" x1="105.92" y1="84.229" x2="105.92" y2="200.473" gradientUnits="userSpaceOnUse">
<stop stop-color="white"/>
<stop offset="1" stop-color="white" stop-opacity="0"/>
</linearGradient>
<clipPath id="clip0_119_317">
<rect width="240" height="240" fill="white"/>
</clipPath>
</defs>
</svg>
