<svg width="240" height="240" viewBox="0 0 240 240" fill="none" xmlns="http://www.w3.org/2000/svg">
<g clip-path="url(#clip0_119_522)">
<g filter="url(#filter0_f_119_522)">
<circle cx="94.3751" cy="95.3751" r="64.3751" fill="#FFC701" fill-opacity="0.5"/>
</g>
<circle cx="94.3754" cy="97.4858" r="61.2646" fill="url(#paint0_linear_119_522)" stroke="url(#paint1_linear_119_522)" stroke-width="2"/>
<mask id="mask0_119_522" style="mask-type:alpha" maskUnits="userSpaceOnUse" x="32" y="70" width="125" height="90">
<path d="M156.64 97.4856C156.64 131.873 128.763 159.75 94.3754 159.75C59.9876 159.75 32.1108 131.873 32.1108 97.4856C32.1108 63.0979 55.2386 71.1024 89.6264 71.1024C124.014 71.1024 156.64 63.0979 156.64 97.4856Z" fill="url(#paint2_linear_119_522)"/>
</mask>
<g mask="url(#mask0_119_522)">
<g filter="url(#filter1_f_119_522)">
<path fill-rule="evenodd" clip-rule="evenodd" d="M189.355 211.461C189.355 236.524 169.038 256.84 143.976 256.84C143.8 256.84 143.624 256.839 143.448 256.837V256.84H-15.9068L-15.9048 256.838C-16.0812 256.84 -16.2579 256.841 -16.4347 256.841C-41.497 256.841 -61.814 236.524 -61.814 211.462C-61.814 186.399 -41.497 166.083 -16.4347 166.083C5.16817 166.083 23.2454 181.178 27.8242 201.396L43.1918 181.912L91.2094 166.082H143.448V166.085C143.624 166.083 143.8 166.082 143.976 166.082C169.038 166.082 189.355 186.399 189.355 211.461Z" fill="#E18700"/>
</g>
</g>
<g filter="url(#filter2_bd_119_522)">
<mask id="path-5-inside-1_119_522" fill="white">
<path fill-rule="evenodd" clip-rule="evenodd" d="M191.431 200.471C191.551 200.473 191.672 200.473 191.793 200.473C208.939 200.473 222.839 186.573 222.839 169.427C222.839 152.28 208.939 138.38 191.793 138.38C191.672 138.38 191.551 138.381 191.431 138.382V138.38H183.411C183.7 136.255 183.85 134.086 183.85 131.882C183.85 105.564 162.515 84.229 136.197 84.229C109.879 84.229 88.5444 105.564 88.5444 131.882C88.5444 134.365 88.7343 136.804 89.1005 139.185C86.8343 138.659 84.4729 138.38 82.0466 138.38C64.9 138.38 51 152.28 51 169.427C51 186.573 64.9 200.473 82.0466 200.473C82.1674 200.473 82.288 200.473 82.4085 200.471L82.4069 200.473H191.431V200.471Z"/>
</mask>
<path fill-rule="evenodd" clip-rule="evenodd" d="M191.431 200.471C191.551 200.473 191.672 200.473 191.793 200.473C208.939 200.473 222.839 186.573 222.839 169.427C222.839 152.28 208.939 138.38 191.793 138.38C191.672 138.38 191.551 138.381 191.431 138.382V138.38H183.411C183.7 136.255 183.85 134.086 183.85 131.882C183.85 105.564 162.515 84.229 136.197 84.229C109.879 84.229 88.5444 105.564 88.5444 131.882C88.5444 134.365 88.7343 136.804 89.1005 139.185C86.8343 138.659 84.4729 138.38 82.0466 138.38C64.9 138.38 51 152.28 51 169.427C51 186.573 64.9 200.473 82.0466 200.473C82.1674 200.473 82.288 200.473 82.4085 200.471L82.4069 200.473H191.431V200.471Z" fill="url(#paint3_linear_119_522)" shape-rendering="crispEdges"/>
<path d="M191.431 200.471L191.453 198.471C190.919 198.465 190.405 198.673 190.025 199.049C189.645 199.425 189.431 199.937 189.431 200.471H191.431ZM191.431 138.382H189.431C189.431 138.917 189.645 139.429 190.025 139.805C190.405 140.18 190.919 140.388 191.454 140.382L191.431 138.382ZM191.431 138.38H193.431C193.431 137.276 192.535 136.38 191.431 136.38V138.38ZM183.411 138.38L181.429 138.11C181.351 138.682 181.524 139.26 181.904 139.695C182.284 140.131 182.833 140.38 183.411 140.38V138.38ZM89.1005 139.185L88.6479 141.133C89.2945 141.283 89.9734 141.103 90.4602 140.652C90.947 140.2 91.1782 139.537 91.0773 138.881L89.1005 139.185ZM82.4085 200.471L83.9789 201.71C84.456 201.105 84.5432 200.28 84.2032 199.588C83.8631 198.897 83.1561 198.463 82.3858 198.471L82.4085 200.471ZM82.4069 200.473L80.8366 199.235C80.362 199.836 80.273 200.656 80.6073 201.346C80.9417 202.035 81.6406 202.473 82.4069 202.473V200.473ZM191.431 200.473V202.473C192.535 202.473 193.431 201.578 193.431 200.473H191.431ZM191.408 202.471C191.536 202.473 191.664 202.473 191.793 202.473V198.473C191.679 198.473 191.566 198.473 191.453 198.471L191.408 202.471ZM191.793 202.473C210.044 202.473 224.839 187.678 224.839 169.427H220.839C220.839 185.469 207.834 198.473 191.793 198.473V202.473ZM224.839 169.427C224.839 151.176 210.044 136.38 191.793 136.38V140.38C207.834 140.38 220.839 153.385 220.839 169.427H224.839ZM191.793 136.38C191.664 136.38 191.536 136.381 191.408 136.382L191.454 140.382C191.566 140.381 191.679 140.38 191.793 140.38V136.38ZM189.431 138.38V138.382H193.431V138.38H189.431ZM183.411 140.38H191.431V136.38H183.411V140.38ZM185.392 138.65C185.694 136.436 185.85 134.177 185.85 131.882H181.85C181.85 133.995 181.707 136.075 181.429 138.11L185.392 138.65ZM185.85 131.882C185.85 104.459 163.62 82.229 136.197 82.229V86.229C161.411 86.229 181.85 106.668 181.85 131.882H185.85ZM136.197 82.229C108.775 82.229 86.5444 104.459 86.5444 131.882H90.5444C90.5444 106.668 110.984 86.229 136.197 86.229V82.229ZM86.5444 131.882C86.5444 134.467 86.7422 137.008 87.1238 139.489L91.0773 138.881C90.7265 136.6 90.5444 134.263 90.5444 131.882H86.5444ZM89.5531 137.237C87.1396 136.676 84.6264 136.38 82.0466 136.38V140.38C84.3195 140.38 86.5291 140.641 88.6479 141.133L89.5531 137.237ZM82.0466 136.38C63.7954 136.38 49 151.176 49 169.427H53C53 153.385 66.0046 140.38 82.0466 140.38V136.38ZM49 169.427C49 187.678 63.7954 202.473 82.0466 202.473V198.473C66.0046 198.473 53 185.469 53 169.427H49ZM82.0466 202.473C82.175 202.473 82.3033 202.473 82.4313 202.471L82.3858 198.471C82.2728 198.473 82.1597 198.473 82.0466 198.473V202.473ZM83.9772 201.712L83.9789 201.71L80.8382 199.233L80.8366 199.235L83.9772 201.712ZM191.431 198.473H82.4069V202.473H191.431V198.473ZM189.431 200.471V200.473H193.431V200.471H189.431Z" fill="url(#paint4_linear_119_522)" mask="url(#path-5-inside-1_119_522)"/>
</g>
</g>
<defs>
<filter id="filter0_f_119_522" x="-14" y="-13" width="216.75" height="216.75" filterUnits="userSpaceOnUse" color-interpolation-filters="sRGB">
<feFlood flood-opacity="0" result="BackgroundImageFix"/>
<feBlend mode="normal" in="SourceGraphic" in2="BackgroundImageFix" result="shape"/>
<feGaussianBlur stdDeviation="22" result="effect1_foregroundBlur_119_522"/>
</filter>
<filter id="filter1_f_119_522" x="-75.814" y="152.082" width="279.169" height="118.759" filterUnits="userSpaceOnUse" color-interpolation-filters="sRGB">
<feFlood flood-opacity="0" result="BackgroundImageFix"/>
<feBlend mode="normal" in="SourceGraphic" in2="BackgroundImageFix" result="shape"/>
<feGaussianBlur stdDeviation="7" result="effect1_foregroundBlur_119_522"/>
</filter>
<filter id="filter2_bd_119_522" x="25" y="70.229" width="221.839" height="170.244" filterUnits="userSpaceOnUse" color-interpolation-filters="sRGB">
<feFlood flood-opacity="0" result="BackgroundImageFix"/>
<feGaussianBlur in="BackgroundImageFix" stdDeviation="7"/>
<feComposite in2="SourceAlpha" operator="in" result="effect1_backgroundBlur_119_522"/>
<feColorMatrix in="SourceAlpha" type="matrix" values="0 0 0 0 0 0 0 0 0 0 0 0 0 0 0 0 0 0 127 0" result="hardAlpha"/>
<feOffset dx="-1" dy="15"/>
<feGaussianBlur stdDeviation="12.5"/>
<feComposite in2="hardAlpha" operator="out"/>
<feColorMatrix type="matrix" values="0 0 0 0 0.113438 0 0 0 0 0.148981 0 0 0 0 0.275 0 0 0 0.25 0"/>
<feBlend mode="normal" in2="effect1_backgroundBlur_119_522" result="effect2_dropShadow_119_522"/>
<feBlend mode="normal" in="SourceGraphic" in2="effect2_dropShadow_119_522" result="shape"/>
</filter>
<linearGradient id="paint0_linear_119_522" x1="94.3754" y1="35.2212" x2="94.3754" y2="159.75" gradientUnits="userSpaceOnUse">
<stop stop-color="#FFE600"/>
<stop offset="1" stop-color="#FF7A00"/>
</linearGradient>
<linearGradient id="paint1_linear_119_522" x1="94.3754" y1="35.2212" x2="94.3754" y2="159.75" gradientUnits="userSpaceOnUse">
<stop stop-color="white"/>
<stop offset="1" stop-color="white" stop-opacity="0"/>
</linearGradient>
<linearGradient id="paint2_linear_119_522" x1="94.3754" y1="35.2211" x2="94.3754" y2="159.75" gradientUnits="userSpaceOnUse">
<stop stop-color="#FFD600"/>
<stop offset="1" stop-color="#FF7A00"/>
</linearGradient>
<linearGradient id="paint3_linear_119_522" x1="144.912" y1="87.7257" x2="144.912" y2="213.608" gradientUnits="userSpaceOnUse">
<stop stop-color="white"/>
<stop offset="1" stop-color="white" stop-opacity="0"/>
</linearGradient>
<linearGradient id="paint4_linear_119_522" x1="136.92" y1="84.229" x2="136.92" y2="200.473" gradientUnits="userSpaceOnUse">
<stop stop-color="white"/>
<stop offset="1" stop-color="white" stop-opacity="0"/>
</linearGradient>
<clipPath id="clip0_119_522">
<rect width="240" height="240" fill="white"/>
</clipPath>
</defs>
</svg>
