<svg width="240" height="240" viewBox="0 0 240 240" fill="none" xmlns="http://www.w3.org/2000/svg">
<g clip-path="url(#clip0_119_36)">
<g filter="url(#filter0_f_119_36)">
<circle cx="142.941" cy="85.0594" r="42.0594" fill="#FFC701" fill-opacity="0.5"/>
</g>
<circle cx="142.941" cy="86.4382" r="39.6804" fill="url(#paint0_linear_119_36)" stroke="url(#paint1_linear_119_36)" stroke-width="2"/>
<mask id="mask0_119_36" style="mask-type:alpha" maskUnits="userSpaceOnUse" x="102" y="68" width="82" height="60">
<path d="M183.621 86.4383C183.621 108.905 165.408 127.119 142.941 127.119C120.473 127.119 102.26 108.905 102.26 86.4383C102.26 63.9711 117.371 69.2008 139.838 69.2008C162.305 69.2008 183.621 63.9711 183.621 86.4383Z" fill="url(#paint2_linear_119_36)"/>
</mask>
<g mask="url(#mask0_119_36)">
<g filter="url(#filter1_f_119_36)">
<path fill-rule="evenodd" clip-rule="evenodd" d="M175.002 190.55C175.117 190.552 175.232 190.552 175.347 190.552C191.721 190.552 204.995 177.278 204.995 160.904C204.995 144.53 191.721 131.256 175.347 131.256C175.232 131.256 175.117 131.256 175.002 131.258V131.256H156.101C156.515 128.789 156.731 126.255 156.731 123.671C156.731 98.5386 136.356 78.1645 111.224 78.1645C86.091 78.1645 65.7169 98.5386 65.7169 123.671C65.7169 126.356 65.9494 128.986 66.3953 131.543C51.9848 133.561 40.8951 145.937 40.8951 160.904C40.8951 177.278 54.1691 190.552 70.5435 190.552C70.659 190.552 70.7744 190.552 70.8896 190.55L70.888 190.552H175.002V190.55Z" fill="#E18700"/>
</g>
</g>
<g filter="url(#filter2_bd_119_36)">
<mask id="path-5-inside-1_119_36" fill="white">
<path fill-rule="evenodd" clip-rule="evenodd" d="M157.765 193.998C157.88 193.999 157.995 194 158.109 194C174.484 194 187.758 180.726 187.758 164.352C187.758 147.977 174.484 134.703 158.109 134.703C157.995 134.703 157.88 134.704 157.765 134.705V134.703H150.105C150.382 132.674 150.525 130.603 150.525 128.498C150.525 103.365 130.151 82.9909 105.018 82.9909C79.8855 82.9909 59.5113 103.365 59.5113 128.498C59.5113 130.869 59.6927 133.198 60.0424 135.472C57.8782 134.969 55.6231 134.703 53.3059 134.703C36.9316 134.703 23.6575 147.977 23.6575 164.352C23.6575 180.726 36.9316 194 53.3059 194C53.4216 194 53.5371 193.999 53.6525 193.998L53.6509 194H157.765V193.998Z"/>
</mask>
<path fill-rule="evenodd" clip-rule="evenodd" d="M157.765 193.998C157.88 193.999 157.995 194 158.109 194C174.484 194 187.758 180.726 187.758 164.352C187.758 147.977 174.484 134.703 158.109 134.703C157.995 134.703 157.88 134.704 157.765 134.705V134.703H150.105C150.382 132.674 150.525 130.603 150.525 128.498C150.525 103.365 130.151 82.9909 105.018 82.9909C79.8855 82.9909 59.5113 103.365 59.5113 128.498C59.5113 130.869 59.6927 133.198 60.0424 135.472C57.8782 134.969 55.6231 134.703 53.3059 134.703C36.9316 134.703 23.6575 147.977 23.6575 164.352C23.6575 180.726 36.9316 194 53.3059 194C53.4216 194 53.5371 193.999 53.6525 193.998L53.6509 194H157.765V193.998Z" fill="url(#paint3_linear_119_36)" shape-rendering="crispEdges"/>
<path d="M157.765 193.998L157.788 191.998C157.254 191.992 156.739 192.2 156.359 192.576C155.979 192.952 155.765 193.464 155.765 193.998H157.765ZM157.765 134.705H155.765C155.765 135.24 155.979 135.752 156.359 136.128C156.739 136.503 157.254 136.711 157.788 136.705L157.765 134.705ZM157.765 134.703H159.765C159.765 133.599 158.87 132.703 157.765 132.703V134.703ZM150.106 134.703L148.124 134.433C148.046 135.005 148.219 135.584 148.599 136.019C148.979 136.454 149.528 136.703 150.106 136.703V134.703ZM60.0426 135.472L59.59 137.42C60.2366 137.57 60.9155 137.39 61.4023 136.939C61.8891 136.487 62.1203 135.824 62.0194 135.168L60.0426 135.472ZM53.6527 193.998L55.2232 195.237C55.7002 194.632 55.7873 193.806 55.4472 193.115C55.107 192.424 54.4001 191.99 53.6298 191.998L53.6527 193.998ZM53.6511 194L52.0806 192.762C51.6061 193.364 51.5172 194.183 51.8516 194.873C52.1859 195.562 52.8848 196 53.6511 196V194ZM157.765 194V196C158.87 196 159.765 195.105 159.765 194H157.765ZM157.743 195.998C157.865 195.999 157.987 196 158.11 196V192C158.002 192 157.895 192 157.788 191.998L157.743 195.998ZM158.11 196C175.589 196 189.758 181.831 189.758 164.352H185.758C185.758 179.622 173.379 192 158.11 192V196ZM189.758 164.352C189.758 146.873 175.589 132.703 158.11 132.703V136.703C173.379 136.703 185.758 149.082 185.758 164.352H189.758ZM158.11 132.703C157.987 132.703 157.865 132.704 157.743 132.705L157.788 136.705C157.895 136.704 158.002 136.703 158.11 136.703V132.703ZM155.765 134.703V134.705H159.765V134.703H155.765ZM150.106 136.703H157.765V132.703H150.106V136.703ZM152.087 134.974C152.376 132.855 152.525 130.693 152.525 128.498H148.525C148.525 130.512 148.388 132.493 148.124 134.433L152.087 134.974ZM152.525 128.498C152.525 102.261 131.256 80.991 105.018 80.991V84.991C129.047 84.991 148.525 104.47 148.525 128.498H152.525ZM105.018 80.991C78.7811 80.991 57.5115 102.261 57.5115 128.498H61.5115C61.5115 104.47 80.9902 84.991 105.018 84.991V80.991ZM57.5115 128.498C57.5115 130.971 57.7008 133.402 58.0659 135.776L62.0194 135.168C61.6851 132.995 61.5115 130.767 61.5115 128.498H57.5115ZM60.4952 133.524C58.1837 132.987 55.7767 132.703 53.3061 132.703V136.703C55.4699 136.703 57.5732 136.952 59.59 137.42L60.4952 133.524ZM53.3061 132.703C35.8272 132.703 21.6577 146.873 21.6577 164.352H25.6577C25.6577 149.082 38.0363 136.703 53.3061 136.703V132.703ZM21.6577 164.352C21.6577 181.831 35.8272 196 53.3061 196V192C38.0363 192 25.6577 179.622 25.6577 164.352H21.6577ZM53.3061 196C53.4294 196 53.5526 195.999 53.6755 195.998L53.6298 191.998C53.522 192 53.4141 192 53.3061 192V196ZM55.2216 195.239L55.2232 195.237L52.0821 192.76L52.0806 192.762L55.2216 195.239ZM157.765 192H53.6511V196H157.765V192ZM155.765 193.998V194H159.765V193.998H155.765Z" fill="url(#paint4_linear_119_36)" mask="url(#path-5-inside-1_119_36)"/>
</g>
<g filter="url(#filter3_bd_119_36)">
<mask id="path-7-inside-2_119_36" fill="white">
<path fill-rule="evenodd" clip-rule="evenodd" d="M211.589 163.214C211.672 163.215 211.755 163.216 211.838 163.216C223.672 163.216 233.265 153.623 233.265 141.789C233.265 129.956 223.672 120.363 211.838 120.363C211.755 120.363 211.672 120.363 211.589 120.364V120.363H206.054C206.254 118.896 206.357 117.399 206.357 115.878C206.357 97.715 191.633 82.9909 173.47 82.9909C155.306 82.9909 140.582 97.715 140.582 115.878C140.582 117.592 140.713 119.275 140.966 120.918C139.402 120.555 137.772 120.363 136.098 120.363C124.264 120.363 114.671 129.956 114.671 141.789C114.671 153.623 124.264 163.216 136.098 163.216C136.181 163.216 136.265 163.215 136.348 163.214L136.347 163.216H211.589V163.214Z"/>
</mask>
<path fill-rule="evenodd" clip-rule="evenodd" d="M211.589 163.214C211.672 163.215 211.755 163.216 211.838 163.216C223.672 163.216 233.265 153.623 233.265 141.789C233.265 129.956 223.672 120.363 211.838 120.363C211.755 120.363 211.672 120.363 211.589 120.364V120.363H206.054C206.254 118.896 206.357 117.399 206.357 115.878C206.357 97.715 191.633 82.9909 173.47 82.9909C155.306 82.9909 140.582 97.715 140.582 115.878C140.582 117.592 140.713 119.275 140.966 120.918C139.402 120.555 137.772 120.363 136.098 120.363C124.264 120.363 114.671 129.956 114.671 141.789C114.671 153.623 124.264 163.216 136.098 163.216C136.181 163.216 136.265 163.215 136.348 163.214L136.347 163.216H211.589V163.214Z" fill="url(#paint5_linear_119_36)" shape-rendering="crispEdges"/>
<path d="M211.589 163.215L211.612 161.215C211.078 161.209 210.563 161.417 210.183 161.792C209.803 162.168 209.589 162.68 209.589 163.215H211.589ZM211.589 120.364H209.589C209.589 120.899 209.803 121.411 210.183 121.786C210.563 122.162 211.078 122.37 211.612 122.364L211.589 120.364ZM211.589 120.363H213.589C213.589 119.258 212.694 118.363 211.589 118.363V120.363ZM206.054 120.363L204.072 120.093C203.994 120.665 204.167 121.243 204.547 121.678C204.927 122.113 205.476 122.363 206.054 122.363V120.363ZM140.966 120.918L140.514 122.866C141.16 123.017 141.839 122.836 142.326 122.385C142.813 121.934 143.044 121.27 142.943 120.614L140.966 120.918ZM136.348 163.215L137.919 164.453C138.396 163.848 138.483 163.023 138.143 162.332C137.803 161.64 137.096 161.206 136.325 161.215L136.348 163.215ZM136.347 163.216L134.777 161.978C134.302 162.579 134.213 163.399 134.548 164.089C134.882 164.778 135.581 165.216 136.347 165.216V163.216ZM211.589 163.216V165.216C212.694 165.216 213.589 164.321 213.589 163.216H211.589ZM211.567 165.214C211.657 165.215 211.748 165.216 211.838 165.216V161.216C211.763 161.216 211.687 161.216 211.612 161.215L211.567 165.214ZM211.838 165.216C224.776 165.216 235.265 154.728 235.265 141.789H231.265C231.265 152.518 222.567 161.216 211.838 161.216V165.216ZM235.265 141.789C235.265 128.851 224.776 118.363 211.838 118.363V122.363C222.567 122.363 231.265 131.06 231.265 141.789H235.265ZM211.838 118.363C211.748 118.363 211.657 118.363 211.567 118.364L211.612 122.364C211.687 122.363 211.763 122.363 211.838 122.363V118.363ZM209.589 120.363V120.364H213.589V120.363H209.589ZM206.054 122.363H211.589V118.363H206.054V122.363ZM208.036 120.633C208.248 119.077 208.357 117.49 208.357 115.878H204.357C204.357 117.309 204.26 118.716 204.072 120.093L208.036 120.633ZM208.357 115.878C208.357 96.6105 192.737 80.991 173.47 80.991V84.991C190.528 84.991 204.357 98.8197 204.357 115.878H208.357ZM173.47 80.991C154.202 80.991 138.582 96.6105 138.582 115.878H142.582C142.582 98.8197 156.411 84.991 173.47 84.991V80.991ZM138.582 115.878C138.582 117.694 138.721 119.479 138.989 121.222L142.943 120.614C142.706 119.071 142.582 117.49 142.582 115.878H138.582ZM141.419 118.97C139.707 118.573 137.926 118.363 136.098 118.363V122.363C137.619 122.363 139.097 122.537 140.514 122.866L141.419 118.97ZM136.098 118.363C123.16 118.363 112.671 128.851 112.671 141.789H116.671C116.671 131.06 125.369 122.363 136.098 122.363V118.363ZM112.671 141.789C112.671 154.728 123.16 165.216 136.098 165.216V161.216C125.369 161.216 116.671 152.518 116.671 141.789H112.671ZM136.098 165.216C136.189 165.216 136.28 165.215 136.371 165.214L136.325 161.215C136.25 161.216 136.174 161.216 136.098 161.216V165.216ZM137.918 164.454L137.919 164.453L134.778 161.976L134.777 161.978L137.918 164.454ZM211.589 161.216H136.347V165.216H211.589V161.216ZM209.589 163.215V163.216H213.589V163.215H209.589Z" fill="url(#paint6_linear_119_36)" mask="url(#path-7-inside-2_119_36)"/>
</g>
</g>
<defs>
<filter id="filter0_f_119_36" x="56.8813" y="-1" width="172.119" height="172.119" filterUnits="userSpaceOnUse" color-interpolation-filters="sRGB">
<feFlood flood-opacity="0" result="BackgroundImageFix"/>
<feBlend mode="normal" in="SourceGraphic" in2="BackgroundImageFix" result="shape"/>
<feGaussianBlur stdDeviation="22" result="effect1_foregroundBlur_119_36"/>
</filter>
<filter id="filter1_f_119_36" x="26.895" y="64.1646" width="192.101" height="140.388" filterUnits="userSpaceOnUse" color-interpolation-filters="sRGB">
<feFlood flood-opacity="0" result="BackgroundImageFix"/>
<feBlend mode="normal" in="SourceGraphic" in2="BackgroundImageFix" result="shape"/>
<feGaussianBlur stdDeviation="7" result="effect1_foregroundBlur_119_36"/>
</filter>
<filter id="filter2_bd_119_36" x="-6.34229" y="68.991" width="208.101" height="160.009" filterUnits="userSpaceOnUse" color-interpolation-filters="sRGB">
<feFlood flood-opacity="0" result="BackgroundImageFix"/>
<feGaussianBlur in="BackgroundImageFix" stdDeviation="7"/>
<feComposite in2="SourceAlpha" operator="in" result="effect1_backgroundBlur_119_36"/>
<feColorMatrix in="SourceAlpha" type="matrix" values="0 0 0 0 0 0 0 0 0 0 0 0 0 0 0 0 0 0 127 0" result="hardAlpha"/>
<feOffset dx="-10" dy="15"/>
<feGaussianBlur stdDeviation="10"/>
<feComposite in2="hardAlpha" operator="out"/>
<feColorMatrix type="matrix" values="0 0 0 0 0.113725 0 0 0 0 0.14902 0 0 0 0 0.27451 0 0 0 0.25 0"/>
<feBlend mode="normal" in2="effect1_backgroundBlur_119_36" result="effect2_dropShadow_119_36"/>
<feBlend mode="normal" in="SourceGraphic" in2="effect2_dropShadow_119_36" result="shape"/>
</filter>
<filter id="filter3_bd_119_36" x="69.6714" y="67.991" width="178.593" height="140.225" filterUnits="userSpaceOnUse" color-interpolation-filters="sRGB">
<feFlood flood-opacity="0" result="BackgroundImageFix"/>
<feGaussianBlur in="BackgroundImageFix" stdDeviation="7"/>
<feComposite in2="SourceAlpha" operator="in" result="effect1_backgroundBlur_119_36"/>
<feColorMatrix in="SourceAlpha" type="matrix" values="0 0 0 0 0 0 0 0 0 0 0 0 0 0 0 0 0 0 127 0" result="hardAlpha"/>
<feOffset dx="-15" dy="15"/>
<feGaussianBlur stdDeviation="15"/>
<feComposite in2="hardAlpha" operator="out"/>
<feColorMatrix type="matrix" values="0 0 0 0 0.113438 0 0 0 0 0.148981 0 0 0 0 0.275 0 0 0 0.25 0"/>
<feBlend mode="normal" in2="effect1_backgroundBlur_119_36" result="effect2_dropShadow_119_36"/>
<feBlend mode="normal" in="SourceGraphic" in2="effect2_dropShadow_119_36" result="shape"/>
</filter>
<linearGradient id="paint0_linear_119_36" x1="142.941" y1="45.7578" x2="142.941" y2="127.119" gradientUnits="userSpaceOnUse">
<stop stop-color="#FFE600"/>
<stop offset="1" stop-color="#FF7A00"/>
</linearGradient>
<linearGradient id="paint1_linear_119_36" x1="142.941" y1="45.7578" x2="142.941" y2="127.119" gradientUnits="userSpaceOnUse">
<stop stop-color="white"/>
<stop offset="1" stop-color="white" stop-opacity="0"/>
</linearGradient>
<linearGradient id="paint2_linear_119_36" x1="142.941" y1="45.7579" x2="142.941" y2="127.119" gradientUnits="userSpaceOnUse">
<stop stop-color="#FFD600"/>
<stop offset="1" stop-color="#FF7A00"/>
</linearGradient>
<linearGradient id="paint3_linear_119_36" x1="105.708" y1="47.4818" x2="105.708" y2="209.514" gradientUnits="userSpaceOnUse">
<stop stop-color="white"/>
<stop offset="1" stop-color="white" stop-opacity="0"/>
</linearGradient>
<linearGradient id="paint4_linear_119_36" x1="105.708" y1="82.991" x2="105.708" y2="194" gradientUnits="userSpaceOnUse">
<stop stop-color="white"/>
<stop offset="1" stop-color="white" stop-opacity="0"/>
</linearGradient>
<linearGradient id="paint5_linear_119_36" x1="179.484" y1="85.4042" x2="179.484" y2="172.281" gradientUnits="userSpaceOnUse">
<stop stop-color="white"/>
<stop offset="1" stop-color="white" stop-opacity="0"/>
</linearGradient>
<linearGradient id="paint6_linear_119_36" x1="173.968" y1="82.991" x2="173.968" y2="163.216" gradientUnits="userSpaceOnUse">
<stop stop-color="white"/>
<stop offset="1" stop-color="white" stop-opacity="0"/>
</linearGradient>
<clipPath id="clip0_119_36">
<rect width="240" height="240" fill="white"/>
</clipPath>
</defs>
</svg>
