<svg width="240" height="240" viewBox="0 0 240 240" fill="none" xmlns="http://www.w3.org/2000/svg">
<g clip-path="url(#clip0_119_329)">
<g filter="url(#filter0_bdd_119_329)">
<mask id="path-1-inside-1_119_329" fill="white">
<path fill-rule="evenodd" clip-rule="evenodd" d="M112.087 21.4476C115.484 20.6427 117.629 24.702 116.024 27.8025C110.449 38.5762 109.996 51.7955 115.968 63.4044C124.07 79.1571 141.464 87.0122 158.014 83.7199C161.441 83.0382 164.749 86.2262 163.033 89.27C158.742 96.8835 152.251 103.369 143.898 107.665C121.166 119.358 93.2592 110.409 81.5665 87.6767C69.8738 64.9446 78.823 37.0378 101.555 25.3451C104.973 23.5871 108.508 22.2957 112.087 21.4476Z"/>
</mask>
<path fill-rule="evenodd" clip-rule="evenodd" d="M112.087 21.4476C115.484 20.6427 117.629 24.702 116.024 27.8025C110.449 38.5762 109.996 51.7955 115.968 63.4044C124.07 79.1571 141.464 87.0122 158.014 83.7199C161.441 83.0382 164.749 86.2262 163.033 89.27C158.742 96.8835 152.251 103.369 143.898 107.665C121.166 119.358 93.2592 110.409 81.5665 87.6767C69.8738 64.9446 78.823 37.0378 101.555 25.3451C104.973 23.5871 108.508 22.2957 112.087 21.4476Z" fill="url(#paint0_linear_119_329)"/>
<path d="M158.014 83.7199L158.404 85.6815L158.014 83.7199ZM163.033 89.27L164.775 90.252L163.033 89.27ZM112.087 21.4476L112.548 23.3937L112.087 21.4476ZM117.746 62.4896C112.084 51.4806 112.51 38.9451 117.8 28.7217L114.248 26.8833C108.388 38.2072 107.909 52.1103 114.189 64.3192L117.746 62.4896ZM157.624 81.7584C141.926 84.8812 125.43 77.4275 117.746 62.4896L114.189 64.3192C122.711 80.8867 141.002 89.1433 158.404 85.6815L157.624 81.7584ZM161.291 88.2881C157.186 95.5713 150.977 101.775 142.983 105.887L144.813 109.444C153.524 104.963 160.299 98.1957 164.775 90.252L161.291 88.2881ZM142.983 105.887C121.233 117.074 94.5325 108.512 83.345 86.7618L79.788 88.5915C91.9859 112.306 121.099 121.642 144.813 109.444L142.983 105.887ZM83.345 86.7618C72.1576 65.012 80.7201 38.3111 102.47 27.1236L100.64 23.5666C76.9259 35.7645 67.5901 64.8772 79.788 88.5915L83.345 86.7618ZM102.47 27.1236C105.743 25.4402 109.125 24.2048 112.548 23.3937L111.626 19.5015C107.89 20.3866 104.203 21.734 100.64 23.5666L102.47 27.1236ZM158.404 85.6815C159.416 85.4801 160.415 85.8593 161.004 86.4777C161.545 87.045 161.645 87.6592 161.291 88.2881L164.775 90.252C166.136 87.837 165.441 85.3353 163.9 83.7182C162.407 82.152 160.038 81.278 157.624 81.7584L158.404 85.6815ZM117.8 28.7217C118.931 26.5362 118.748 24.0191 117.658 22.1519C116.532 20.2239 114.322 18.8626 111.626 19.5015L112.548 23.3937C113.249 23.2277 113.809 23.4936 114.204 24.1691C114.634 24.9055 114.721 25.9682 114.248 26.8833L117.8 28.7217Z" fill="url(#paint1_linear_119_329)" mask="url(#path-1-inside-1_119_329)"/>
</g>
<mask id="mask0_119_329" style="mask-type:alpha" maskUnits="userSpaceOnUse" x="95" y="79" width="85" height="62">
<path d="M179.594 97.9049C179.594 121.163 160.74 140.017 137.482 140.017C114.224 140.017 95.3696 121.163 95.3696 97.9049C95.3696 74.6469 111.012 80.0607 134.27 80.0607C157.528 80.0607 179.594 74.6469 179.594 97.9049Z" fill="url(#paint2_linear_119_329)"/>
</mask>
<g mask="url(#mask0_119_329)">
<g filter="url(#filter1_f_119_329)">
<path fill-rule="evenodd" clip-rule="evenodd" d="M201.721 174.992C201.721 191.943 187.98 205.684 171.029 205.684C170.91 205.684 170.791 205.683 170.672 205.682V205.684H62.8931L62.8947 205.682C62.7754 205.683 62.6559 205.684 62.5363 205.684C45.5855 205.684 31.8442 191.943 31.8442 174.992C31.8442 158.041 45.5855 144.3 62.5363 144.3C77.1473 144.3 89.3737 154.509 92.4706 168.184L102.864 155.006L135.341 144.3H170.672V144.302C170.791 144.3 170.91 144.3 171.029 144.3C187.98 144.3 201.721 158.041 201.721 174.992Z" fill="#E18700"/>
</g>
</g>
<g filter="url(#filter2_bd_119_329)">
<mask id="path-5-inside-2_119_329" fill="white">
<path fill-rule="evenodd" clip-rule="evenodd" d="M152.828 209.251C152.947 209.252 153.066 209.253 153.185 209.253C170.136 209.253 183.877 195.511 183.877 178.561C183.877 161.61 170.136 147.869 153.185 147.869C153.066 147.869 152.947 147.869 152.828 147.871V147.869H144.899C145.185 145.768 145.333 143.624 145.333 141.445C145.333 115.427 124.242 94.336 98.2246 94.336C72.2072 94.336 51.1159 115.427 51.1159 141.445C51.1159 143.9 51.3037 146.311 51.6657 148.664C49.4253 148.144 47.0908 147.869 44.692 147.869C27.7413 147.869 14 161.61 14 178.561C14 195.511 27.7413 209.253 44.692 209.253C44.8117 209.253 44.9312 209.252 45.0505 209.251L45.0489 209.253H152.828V209.251Z"/>
</mask>
<path fill-rule="evenodd" clip-rule="evenodd" d="M152.828 209.251C152.947 209.252 153.066 209.253 153.185 209.253C170.136 209.253 183.877 195.511 183.877 178.561C183.877 161.61 170.136 147.869 153.185 147.869C153.066 147.869 152.947 147.869 152.828 147.871V147.869H144.899C145.185 145.768 145.333 143.624 145.333 141.445C145.333 115.427 124.242 94.336 98.2246 94.336C72.2072 94.336 51.1159 115.427 51.1159 141.445C51.1159 143.9 51.3037 146.311 51.6657 148.664C49.4253 148.144 47.0908 147.869 44.692 147.869C27.7413 147.869 14 161.61 14 178.561C14 195.511 27.7413 209.253 44.692 209.253C44.8117 209.253 44.9312 209.252 45.0505 209.251L45.0489 209.253H152.828V209.251Z" fill="url(#paint3_linear_119_329)" shape-rendering="crispEdges"/>
<path d="M152.828 209.251L152.851 207.251C152.316 207.245 151.802 207.453 151.422 207.828C151.042 208.204 150.828 208.716 150.828 209.251H152.828ZM152.828 147.871H150.828C150.828 148.405 151.042 148.917 151.422 149.293C151.802 149.669 152.316 149.877 152.851 149.87L152.828 147.871ZM152.828 147.869H154.828C154.828 146.764 153.932 145.869 152.828 145.869V147.869ZM144.899 147.869L142.917 147.598C142.839 148.171 143.012 148.749 143.392 149.184C143.772 149.619 144.321 149.869 144.899 149.869V147.869ZM51.6657 148.664L51.2131 150.612C51.8596 150.763 52.5386 150.582 53.0254 150.131C53.5122 149.68 53.7434 149.016 53.6425 148.36L51.6657 148.664ZM45.0505 209.251L46.6213 210.489C47.0981 209.884 47.1851 209.058 46.8449 208.367C46.5048 207.676 45.7979 207.242 45.0276 207.251L45.0505 209.251ZM45.0489 209.253L43.4781 208.015C43.0039 208.616 42.9151 209.436 43.2495 210.126C43.5839 210.815 44.2827 211.253 45.0489 211.253V209.253ZM152.828 209.253V211.253C153.932 211.253 154.828 210.357 154.828 209.253H152.828ZM152.805 211.25C152.932 211.252 153.058 211.253 153.185 211.253V207.253C153.073 207.253 152.962 207.252 152.851 207.251L152.805 211.25ZM153.185 211.253C171.24 211.253 185.877 196.616 185.877 178.561H181.877C181.877 194.407 169.031 207.253 153.185 207.253V211.253ZM185.877 178.561C185.877 160.505 171.24 145.869 153.185 145.869V149.869C169.031 149.869 181.877 162.714 181.877 178.561H185.877ZM153.185 145.869C153.058 145.869 152.932 145.869 152.805 145.871L152.851 149.87C152.962 149.869 153.073 149.869 153.185 149.869V145.869ZM150.828 147.869V147.871H154.828V147.869H150.828ZM144.899 149.869H152.828V145.869H144.899V149.869ZM146.881 148.139C147.179 145.949 147.333 143.714 147.333 141.445H143.333C143.333 143.533 143.192 145.587 142.917 147.598L146.881 148.139ZM147.333 141.445C147.333 114.323 125.347 92.3359 98.2246 92.3359V96.3359C123.137 96.3359 143.333 116.532 143.333 141.445H147.333ZM98.2246 92.3359C71.1027 92.3359 49.1159 114.323 49.1159 141.445H53.1159C53.1159 116.532 73.3118 96.3359 98.2246 96.3359V92.3359ZM49.1159 141.445C49.1159 144.002 49.3116 146.514 49.689 148.968L53.6425 148.36C53.2959 146.107 53.1159 143.797 53.1159 141.445H49.1159ZM52.1183 146.716C49.7306 146.161 47.2442 145.869 44.692 145.869V149.869C46.9374 149.869 49.1201 150.126 51.2131 150.612L52.1183 146.716ZM44.692 145.869C26.6367 145.869 12 160.505 12 178.561H16C16 162.714 28.8459 149.869 44.692 149.869V145.869ZM12 178.561C12 196.616 26.6367 211.253 44.692 211.253V207.253C28.8459 207.253 16 194.407 16 178.561H12ZM44.692 211.253C44.8193 211.253 44.9465 211.252 45.0734 211.25L45.0276 207.251C44.9159 207.252 44.804 207.253 44.692 207.253V211.253ZM46.6197 210.491L46.6213 210.489L43.4797 208.013L43.4781 208.015L46.6197 210.491ZM152.828 207.253H45.0489V211.253H152.828V207.253ZM150.828 209.251V209.253H154.828V209.251H150.828Z" fill="url(#paint4_linear_119_329)" mask="url(#path-5-inside-2_119_329)"/>
</g>
<g filter="url(#filter3_bd_119_329)">
<mask id="path-7-inside-3_119_329" fill="white">
<path fill-rule="evenodd" clip-rule="evenodd" d="M208.547 177.384C208.633 177.385 208.719 177.385 208.805 177.385C221.055 177.385 230.985 167.454 230.985 155.204C230.985 142.954 221.055 133.023 208.805 133.023C208.719 133.023 208.633 133.024 208.547 133.025V133.023H202.816C203.023 131.505 203.13 129.956 203.13 128.381C203.13 109.578 187.888 94.336 169.085 94.336C150.283 94.336 135.041 109.578 135.041 128.381C135.041 130.155 135.176 131.898 135.438 133.598C133.819 133.222 132.132 133.023 130.398 133.023C118.148 133.023 108.217 142.954 108.217 155.204C108.217 167.454 118.148 177.385 130.398 177.385C130.485 177.385 130.571 177.385 130.657 177.384L130.656 177.385H208.547V177.384Z"/>
</mask>
<path fill-rule="evenodd" clip-rule="evenodd" d="M208.547 177.384C208.633 177.385 208.719 177.385 208.805 177.385C221.055 177.385 230.985 167.454 230.985 155.204C230.985 142.954 221.055 133.023 208.805 133.023C208.719 133.023 208.633 133.024 208.547 133.025V133.023H202.816C203.023 131.505 203.13 129.956 203.13 128.381C203.13 109.578 187.888 94.336 169.085 94.336C150.283 94.336 135.041 109.578 135.041 128.381C135.041 130.155 135.176 131.898 135.438 133.598C133.819 133.222 132.132 133.023 130.398 133.023C118.148 133.023 108.217 142.954 108.217 155.204C108.217 167.454 118.148 177.385 130.398 177.385C130.485 177.385 130.571 177.385 130.657 177.384L130.656 177.385H208.547V177.384Z" fill="url(#paint5_linear_119_329)" shape-rendering="crispEdges"/>
<path d="M208.547 177.383L208.569 175.384C208.035 175.378 207.521 175.586 207.141 175.961C206.761 176.337 206.547 176.849 206.547 177.383H208.547ZM208.547 133.025H206.547C206.547 133.559 206.761 134.071 207.141 134.447C207.521 134.823 208.035 135.031 208.569 135.025L208.547 133.025ZM208.547 133.023H210.547C210.547 131.919 209.651 131.023 208.547 131.023V133.023ZM202.816 133.023L200.835 132.753C200.757 133.325 200.93 133.903 201.31 134.339C201.689 134.774 202.239 135.023 202.816 135.023V133.023ZM135.438 133.598L134.985 135.546C135.632 135.697 136.311 135.516 136.797 135.065C137.284 134.614 137.515 133.95 137.414 133.294L135.438 133.598ZM130.657 177.383L132.227 178.623C132.704 178.018 132.792 177.193 132.452 176.501C132.112 175.81 131.405 175.375 130.634 175.384L130.657 177.383ZM130.656 177.385L129.087 176.145C128.611 176.747 128.522 177.567 128.856 178.257C129.19 178.947 129.889 179.385 130.656 179.385V177.385ZM208.547 177.385V179.385C209.651 179.385 210.547 178.49 210.547 177.385H208.547ZM208.524 179.383C208.617 179.384 208.711 179.385 208.805 179.385V175.385C208.726 175.385 208.648 175.384 208.569 175.384L208.524 179.383ZM208.805 179.385C222.159 179.385 232.985 168.559 232.985 155.204H228.985C228.985 166.35 219.95 175.385 208.805 175.385V179.385ZM232.985 155.204C232.985 141.849 222.159 131.023 208.805 131.023V135.023C219.95 135.023 228.985 144.059 228.985 155.204H232.985ZM208.805 131.023C208.711 131.023 208.617 131.024 208.524 131.025L208.569 135.025C208.648 135.024 208.726 135.023 208.805 135.023V131.023ZM206.547 133.023V133.025H210.547V133.023H206.547ZM202.816 135.023H208.547V131.023H202.816V135.023ZM204.798 133.294C205.017 131.686 205.13 130.046 205.13 128.381H201.13C201.13 129.865 201.03 131.325 200.835 132.753L204.798 133.294ZM205.13 128.381C205.13 108.474 188.992 92.3359 169.085 92.3359V96.3359C186.783 96.3359 201.13 110.683 201.13 128.381H205.13ZM169.085 92.3359C149.178 92.3359 133.04 108.474 133.04 128.381H137.04C137.04 110.683 151.387 96.3359 169.085 96.3359V92.3359ZM133.04 128.381C133.04 130.257 133.184 132.101 133.461 133.902L137.414 133.294C137.168 131.694 137.04 130.053 137.04 128.381H133.04ZM135.89 131.65C134.124 131.24 132.285 131.023 130.398 131.023V135.023C131.978 135.023 133.513 135.205 134.985 135.546L135.89 131.65ZM130.398 131.023C117.043 131.023 106.217 141.849 106.217 155.204H110.217C110.217 144.059 119.253 135.023 130.398 135.023V131.023ZM106.217 155.204C106.217 168.559 117.043 179.385 130.398 179.385V175.385C119.253 175.385 110.217 166.35 110.217 155.204H106.217ZM130.398 179.385C130.492 179.385 130.586 179.384 130.68 179.383L130.634 175.384C130.556 175.384 130.477 175.385 130.398 175.385V179.385ZM132.225 178.625L132.227 178.623L129.088 176.144L129.087 176.145L132.225 178.625ZM208.547 175.385H130.656V179.385H208.547V175.385ZM206.547 177.383V177.385H210.547V177.383H206.547Z" fill="url(#paint6_linear_119_329)" mask="url(#path-7-inside-3_119_329)"/>
</g>
</g>
<defs>
<filter id="filter0_bdd_119_329" x="5.43115" y="-16.6558" width="196.069" height="194.457" filterUnits="userSpaceOnUse" color-interpolation-filters="sRGB">
<feFlood flood-opacity="0" result="BackgroundImageFix"/>
<feGaussianBlur in="BackgroundImageFix" stdDeviation="7"/>
<feComposite in2="SourceAlpha" operator="in" result="effect1_backgroundBlur_119_329"/>
<feColorMatrix in="SourceAlpha" type="matrix" values="0 0 0 0 0 0 0 0 0 0 0 0 0 0 0 0 0 0 127 0" result="hardAlpha"/>
<feOffset dx="-21" dy="15"/>
<feGaussianBlur stdDeviation="25"/>
<feComposite in2="hardAlpha" operator="out"/>
<feColorMatrix type="matrix" values="0 0 0 0 0.113438 0 0 0 0 0.148981 0 0 0 0 0.275 0 0 0 0.25 0"/>
<feBlend mode="normal" in2="effect1_backgroundBlur_119_329" result="effect2_dropShadow_119_329"/>
<feColorMatrix in="SourceAlpha" type="matrix" values="0 0 0 0 0 0 0 0 0 0 0 0 0 0 0 0 0 0 127 0" result="hardAlpha"/>
<feOffset/>
<feGaussianBlur stdDeviation="19"/>
<feComposite in2="hardAlpha" operator="out"/>
<feColorMatrix type="matrix" values="0 0 0 0 0.619608 0 0 0 0 0.423529 0 0 0 0 1 0 0 0 0.4 0"/>
<feBlend mode="normal" in2="effect2_dropShadow_119_329" result="effect3_dropShadow_119_329"/>
<feBlend mode="normal" in="SourceGraphic" in2="effect3_dropShadow_119_329" result="shape"/>
</filter>
<filter id="filter1_f_119_329" x="17.8442" y="130.3" width="197.877" height="89.384" filterUnits="userSpaceOnUse" color-interpolation-filters="sRGB">
<feFlood flood-opacity="0" result="BackgroundImageFix"/>
<feBlend mode="normal" in="SourceGraphic" in2="BackgroundImageFix" result="shape"/>
<feGaussianBlur stdDeviation="7" result="effect1_foregroundBlur_119_329"/>
</filter>
<filter id="filter2_bd_119_329" x="-7" y="69.3359" width="229.877" height="174.917" filterUnits="userSpaceOnUse" color-interpolation-filters="sRGB">
<feFlood flood-opacity="0" result="BackgroundImageFix"/>
<feGaussianBlur in="BackgroundImageFix" stdDeviation="7"/>
<feComposite in2="SourceAlpha" operator="in" result="effect1_backgroundBlur_119_329"/>
<feColorMatrix in="SourceAlpha" type="matrix" values="0 0 0 0 0 0 0 0 0 0 0 0 0 0 0 0 0 0 127 0" result="hardAlpha"/>
<feOffset dx="9" dy="5"/>
<feGaussianBlur stdDeviation="15"/>
<feComposite in2="hardAlpha" operator="out"/>
<feColorMatrix type="matrix" values="0 0 0 0 0.113725 0 0 0 0 0.14902 0 0 0 0 0.27451 0 0 0 0.25 0"/>
<feBlend mode="normal" in2="effect1_backgroundBlur_119_329" result="effect2_dropShadow_119_329"/>
<feBlend mode="normal" in="SourceGraphic" in2="effect2_dropShadow_119_329" result="shape"/>
</filter>
<filter id="filter3_bd_119_329" x="66.2173" y="74.3359" width="182.768" height="143.049" filterUnits="userSpaceOnUse" color-interpolation-filters="sRGB">
<feFlood flood-opacity="0" result="BackgroundImageFix"/>
<feGaussianBlur in="BackgroundImageFix" stdDeviation="7"/>
<feComposite in2="SourceAlpha" operator="in" result="effect1_backgroundBlur_119_329"/>
<feColorMatrix in="SourceAlpha" type="matrix" values="0 0 0 0 0 0 0 0 0 0 0 0 0 0 0 0 0 0 127 0" result="hardAlpha"/>
<feOffset dx="-12" dy="10"/>
<feGaussianBlur stdDeviation="15"/>
<feComposite in2="hardAlpha" operator="out"/>
<feColorMatrix type="matrix" values="0 0 0 0 0.113438 0 0 0 0 0.148981 0 0 0 0 0.275 0 0 0 0.25 0"/>
<feBlend mode="normal" in2="effect1_backgroundBlur_119_329" result="effect2_dropShadow_119_329"/>
<feBlend mode="normal" in="SourceGraphic" in2="effect2_dropShadow_119_329" result="shape"/>
</filter>
<linearGradient id="paint0_linear_119_329" x1="91.8687" y1="31.2445" x2="134.212" y2="113.565" gradientUnits="userSpaceOnUse">
<stop offset="0.0001" stop-color="#D4C0FF"/>
<stop offset="1" stop-color="#7E2FFF"/>
</linearGradient>
<linearGradient id="paint1_linear_119_329" x1="95.7683" y1="-13.6551" x2="121.24" y2="94.3802" gradientUnits="userSpaceOnUse">
<stop stop-color="white"/>
<stop offset="1" stop-color="white" stop-opacity="0"/>
</linearGradient>
<linearGradient id="paint2_linear_119_329" x1="137.482" y1="55.7926" x2="137.482" y2="140.017" gradientUnits="userSpaceOnUse">
<stop stop-color="#FFD600"/>
<stop offset="1" stop-color="#FF7A00"/>
</linearGradient>
<linearGradient id="paint3_linear_119_329" x1="98.9384" y1="57.5769" x2="98.9384" y2="225.312" gradientUnits="userSpaceOnUse">
<stop stop-color="white"/>
<stop offset="1" stop-color="white" stop-opacity="0"/>
</linearGradient>
<linearGradient id="paint4_linear_119_329" x1="98.9384" y1="94.3359" x2="98.9384" y2="209.253" gradientUnits="userSpaceOnUse">
<stop stop-color="white"/>
<stop offset="1" stop-color="white" stop-opacity="0"/>
</linearGradient>
<linearGradient id="paint5_linear_119_329" x1="175.311" y1="96.8341" x2="175.311" y2="186.769" gradientUnits="userSpaceOnUse">
<stop stop-color="white"/>
<stop offset="1" stop-color="white" stop-opacity="0"/>
</linearGradient>
<linearGradient id="paint6_linear_119_329" x1="169.601" y1="94.3359" x2="169.601" y2="177.385" gradientUnits="userSpaceOnUse">
<stop stop-color="white"/>
<stop offset="1" stop-color="white" stop-opacity="0"/>
</linearGradient>
<clipPath id="clip0_119_329">
<rect width="240" height="240" fill="white"/>
</clipPath>
</defs>
</svg>
