<svg width="240" height="240" viewBox="0 0 240 240" fill="none" xmlns="http://www.w3.org/2000/svg">
<g clip-path="url(#clip0_119_487)">
<path fill-rule="evenodd" clip-rule="evenodd" d="M170.838 57.868C170.838 50.0732 177.157 43.7542 184.952 43.7542C192.747 43.7542 199.066 50.0732 199.066 57.868V72.7854L211.225 65.5911C218.059 61.5475 226.758 63.8779 230.655 70.7962C234.553 77.7145 232.172 86.6008 225.339 90.6444L212.542 98.2161L227.166 106.869C234 110.913 236.38 119.799 232.483 126.717C228.585 133.636 219.886 135.966 213.052 131.922L199.066 123.647V137.81C199.066 145.605 192.747 151.924 184.952 151.924C177.157 151.924 170.838 145.605 170.838 137.81V122.892L158.68 130.086C151.846 134.13 143.147 131.799 139.249 124.881C135.352 117.963 137.732 109.076 144.566 105.033L156.087 98.2161L146.394 92.4808C139.56 88.4372 137.179 79.5508 141.077 72.6326C144.974 65.7143 153.674 63.3839 160.508 67.4275L170.838 73.5403V57.868Z" fill="url(#paint0_linear_119_487)"/>
<g filter="url(#filter0_bd_119_487)">
<mask id="path-2-inside-1_119_487" fill="white">
<path fill-rule="evenodd" clip-rule="evenodd" d="M174.967 167.181C175.098 167.183 175.23 167.184 175.362 167.184C194.122 167.184 209.33 151.976 209.33 133.215C209.33 114.455 194.122 99.2473 175.362 99.2473C175.23 99.2473 175.098 99.248 174.967 99.2495V99.2473H166.192C166.509 96.9225 166.673 94.549 166.673 92.1372C166.673 63.3426 143.33 40 114.535 40C85.7408 40 62.3982 63.3426 62.3982 92.1372C62.3982 94.8544 62.606 97.523 63.0067 100.128C60.5271 99.5519 57.9434 99.2473 55.2885 99.2473C36.5284 99.2473 21.3203 114.455 21.3203 133.215C21.3203 151.976 36.5284 167.184 55.2885 167.184C55.4208 167.184 55.553 167.183 55.6849 167.181L55.6832 167.184H174.967V167.181Z"/>
</mask>
<path fill-rule="evenodd" clip-rule="evenodd" d="M174.967 167.181C175.098 167.183 175.23 167.184 175.362 167.184C194.122 167.184 209.33 151.976 209.33 133.215C209.33 114.455 194.122 99.2473 175.362 99.2473C175.23 99.2473 175.098 99.248 174.967 99.2495V99.2473H166.192C166.509 96.9225 166.673 94.549 166.673 92.1372C166.673 63.3426 143.33 40 114.535 40C85.7408 40 62.3982 63.3426 62.3982 92.1372C62.3982 94.8544 62.606 97.523 63.0067 100.128C60.5271 99.5519 57.9434 99.2473 55.2885 99.2473C36.5284 99.2473 21.3203 114.455 21.3203 133.215C21.3203 151.976 36.5284 167.184 55.2885 167.184C55.4208 167.184 55.553 167.183 55.6849 167.181L55.6832 167.184H174.967V167.181Z" fill="url(#paint1_linear_119_487)" shape-rendering="crispEdges"/>
<path d="M174.967 167.181L174.99 165.182C174.455 165.175 173.941 165.383 173.561 165.759C173.181 166.135 172.967 166.647 172.967 167.181H174.967ZM174.967 99.2495H172.967C172.967 99.7839 173.181 100.296 173.561 100.672C173.941 101.047 174.455 101.255 174.99 101.249L174.967 99.2495ZM174.967 99.2473H176.967C176.967 98.1427 176.071 97.2473 174.967 97.2473V99.2473ZM166.192 99.2473L164.21 98.9771C164.132 99.5493 164.305 100.127 164.685 100.563C165.065 100.998 165.614 101.247 166.192 101.247V99.2473ZM63.0067 100.128L62.554 102.076C63.2006 102.226 63.8796 102.046 64.3664 101.595C64.8532 101.143 65.0843 100.48 64.9834 99.8239L63.0067 100.128ZM55.6849 167.181L57.2559 168.419C57.7326 167.814 57.8195 166.989 57.4793 166.298C57.1391 165.607 56.4322 165.173 55.662 165.182L55.6849 167.181ZM55.6831 167.184L54.1122 165.946C53.638 166.548 53.5493 167.367 53.8838 168.057C54.2182 168.746 54.917 169.184 55.6831 169.184V167.184ZM174.967 167.184V169.184C176.071 169.184 176.967 168.288 176.967 167.184H174.967ZM174.944 169.181C175.083 169.183 175.223 169.184 175.362 169.184V165.184C175.238 165.184 175.114 165.183 174.99 165.182L174.944 169.181ZM175.362 169.184C195.227 169.184 211.33 153.08 211.33 133.215H207.33C207.33 150.871 193.018 165.184 175.362 165.184V169.184ZM211.33 133.215C211.33 113.351 195.227 97.2473 175.362 97.2473V101.247C193.018 101.247 207.33 115.56 207.33 133.215H211.33ZM175.362 97.2473C175.222 97.2473 175.083 97.2481 174.944 97.2497L174.99 101.249C175.114 101.248 175.238 101.247 175.362 101.247V97.2473ZM172.967 99.2473V99.2495H176.967V99.2473H172.967ZM166.192 101.247H174.967V97.2473H166.192V101.247ZM168.174 99.5175C168.503 97.1034 168.673 94.6396 168.673 92.1372H164.673C164.673 94.4584 164.515 96.7416 164.21 98.9771L168.174 99.5175ZM168.673 92.1372C168.673 62.2381 144.435 38 114.535 38V42C142.225 42 164.673 64.4472 164.673 92.1372H168.673ZM114.535 38C84.6362 38 60.3982 62.2381 60.3982 92.1372H64.3982C64.3982 64.4472 86.8454 42 114.535 42V38ZM60.3982 92.1372C60.3982 94.9565 60.6138 97.7267 61.0299 100.432L64.9834 99.8239C64.5982 97.3192 64.3982 94.7522 64.3982 92.1372H60.3982ZM63.4593 98.1799C60.8324 97.5695 58.0968 97.2473 55.2885 97.2473V101.247C57.7899 101.247 60.2218 101.534 62.554 102.076L63.4593 98.1799ZM55.2885 97.2473C35.4238 97.2473 19.3203 113.351 19.3203 133.215H23.3203C23.3203 115.56 37.633 101.247 55.2885 101.247V97.2473ZM19.3203 133.215C19.3203 153.08 35.4238 169.184 55.2885 169.184V165.184C37.633 165.184 23.3203 150.871 23.3203 133.215H19.3203ZM55.2885 169.184C55.4284 169.184 55.5682 169.183 55.7078 169.181L55.662 165.182C55.5377 165.183 55.4132 165.184 55.2885 165.184V169.184ZM57.2541 168.421L57.2559 168.419L54.114 165.944L54.1122 165.946L57.2541 168.421ZM174.967 165.184H55.6831V169.184H174.967V165.184ZM172.967 167.181V167.184H176.967V167.181H172.967Z" fill="url(#paint2_linear_119_487)" mask="url(#path-2-inside-1_119_487)"/>
</g>
<g filter="url(#filter1_f_119_487)">
<ellipse cx="126.463" cy="156.571" rx="95.4286" ry="43.4286" fill="#A9BCDB" fill-opacity="0.3" style="mix-blend-mode:overlay"/>
</g>
<path fill-rule="evenodd" clip-rule="evenodd" d="M160.522 126.249C160.522 124.45 161.98 122.992 163.779 122.992C165.578 122.992 167.036 124.45 167.036 126.249V129.749L169.829 128.082C171.413 127.137 173.426 127.676 174.325 129.286C175.224 130.897 174.67 132.968 173.086 133.914L170.146 135.668L173.507 137.675C175.091 138.62 175.646 140.692 174.747 142.302C173.847 143.912 171.834 144.451 170.251 143.506L167.036 141.587V144.913C167.036 146.711 165.578 148.17 163.779 148.17C161.98 148.17 160.522 146.711 160.522 144.913V141.412L157.729 143.079C156.145 144.024 154.132 143.485 153.233 141.875C152.333 140.265 152.888 138.193 154.472 137.248L157.119 135.668L154.894 134.34C153.31 133.395 152.755 131.324 153.654 129.713C154.554 128.103 156.567 127.564 158.151 128.509L160.522 129.925V126.249Z" fill="url(#paint3_linear_119_487)"/>
<path fill-rule="evenodd" clip-rule="evenodd" d="M123.222 103.869C123.222 102.07 124.681 100.612 126.479 100.612C128.278 100.612 129.736 102.07 129.736 103.869V107.37L132.529 105.702C134.113 104.757 136.126 105.296 137.025 106.907C137.925 108.517 137.37 110.589 135.786 111.534L132.846 113.288L136.208 115.294C137.791 116.24 138.346 118.311 137.447 119.922C136.548 121.532 134.535 122.071 132.951 121.126L129.736 119.207V122.533C129.736 124.332 128.278 125.79 126.479 125.79C124.681 125.79 123.222 124.332 123.222 122.533V119.032L120.429 120.699C118.845 121.645 116.832 121.106 115.933 119.495C115.034 117.885 115.589 115.813 117.172 114.868L119.819 113.288L117.594 111.96C116.01 111.015 115.455 108.943 116.355 107.333C117.254 105.723 119.267 105.184 120.851 106.129L123.222 107.544V103.869Z" fill="url(#paint4_linear_119_487)"/>
<path fill-rule="evenodd" clip-rule="evenodd" d="M124.155 151.426C124.155 149.627 125.613 148.169 127.412 148.169C129.21 148.169 130.668 149.627 130.668 151.426V154.926L133.462 153.259C135.046 152.314 137.059 152.853 137.958 154.463C138.857 156.074 138.303 158.145 136.719 159.09L133.779 160.845L137.14 162.852C138.724 163.797 139.279 165.868 138.379 167.479C137.48 169.089 135.467 169.628 133.883 168.683L130.668 166.764V170.09C130.668 171.888 129.21 173.346 127.412 173.346C125.613 173.346 124.155 171.888 124.155 170.09V166.589L121.362 168.256C119.778 169.201 117.765 168.662 116.866 167.052C115.967 165.442 116.521 163.37 118.105 162.425L120.751 160.845L118.526 159.517C116.943 158.572 116.388 156.5 117.287 154.89C118.186 153.28 120.199 152.741 121.783 153.686L124.155 155.101V151.426Z" fill="url(#paint5_linear_119_487)"/>
</g>
<defs>
<filter id="filter0_bd_119_487" x="-0.679688" y="26" width="238.01" height="181.184" filterUnits="userSpaceOnUse" color-interpolation-filters="sRGB">
<feFlood flood-opacity="0" result="BackgroundImageFix"/>
<feGaussianBlur in="BackgroundImageFix" stdDeviation="7"/>
<feComposite in2="SourceAlpha" operator="in" result="effect1_backgroundBlur_119_487"/>
<feColorMatrix in="SourceAlpha" type="matrix" values="0 0 0 0 0 0 0 0 0 0 0 0 0 0 0 0 0 0 127 0" result="hardAlpha"/>
<feOffset dx="3" dy="15"/>
<feGaussianBlur stdDeviation="12.5"/>
<feComposite in2="hardAlpha" operator="out"/>
<feColorMatrix type="matrix" values="0 0 0 0 0.113725 0 0 0 0 0.14902 0 0 0 0 0.27451 0 0 0 0.25 0"/>
<feBlend mode="normal" in2="effect1_backgroundBlur_119_487" result="effect2_dropShadow_119_487"/>
<feBlend mode="normal" in="SourceGraphic" in2="effect2_dropShadow_119_487" result="shape"/>
</filter>
<filter id="filter1_f_119_487" x="-12.9653" y="69.1426" width="278.857" height="174.857" filterUnits="userSpaceOnUse" color-interpolation-filters="sRGB">
<feFlood flood-opacity="0" result="BackgroundImageFix"/>
<feBlend mode="normal" in="SourceGraphic" in2="BackgroundImageFix" result="shape"/>
<feGaussianBlur stdDeviation="22" result="effect1_foregroundBlur_119_487"/>
</filter>
<linearGradient id="paint0_linear_119_487" x1="185.566" y1="143.119" x2="185.566" y2="51.3011" gradientUnits="userSpaceOnUse">
<stop stop-color="#070FD5"/>
<stop offset="1" stop-color="#06CDF9"/>
</linearGradient>
<linearGradient id="paint1_linear_119_487" x1="115.325" y1="-0.682974" x2="115.325" y2="184.958" gradientUnits="userSpaceOnUse">
<stop stop-color="white"/>
<stop offset="1" stop-color="white" stop-opacity="0"/>
</linearGradient>
<linearGradient id="paint2_linear_119_487" x1="115.325" y1="40" x2="115.325" y2="167.184" gradientUnits="userSpaceOnUse">
<stop stop-color="white"/>
<stop offset="1" stop-color="white" stop-opacity="0"/>
</linearGradient>
<linearGradient id="paint3_linear_119_487" x1="175.177" y1="148.17" x2="175.178" y2="122.992" gradientUnits="userSpaceOnUse">
<stop stop-color="#FFFEFE"/>
<stop offset="1" stop-color="white" stop-opacity="0"/>
</linearGradient>
<linearGradient id="paint4_linear_119_487" x1="137.878" y1="125.79" x2="137.878" y2="100.612" gradientUnits="userSpaceOnUse">
<stop stop-color="#FFFEFE"/>
<stop offset="1" stop-color="white" stop-opacity="0"/>
</linearGradient>
<linearGradient id="paint5_linear_119_487" x1="138.81" y1="173.346" x2="138.81" y2="148.169" gradientUnits="userSpaceOnUse">
<stop stop-color="#FFFEFE"/>
<stop offset="1" stop-color="white" stop-opacity="0"/>
</linearGradient>
<clipPath id="clip0_119_487">
<rect width="240" height="240" fill="white"/>
</clipPath>
</defs>
</svg>
