<svg width="240" height="240" viewBox="0 0 240 240" fill="none" xmlns="http://www.w3.org/2000/svg">
<g clip-path="url(#clip0_119_474)">
<g filter="url(#filter0_bdd_119_474)">
<path d="M62.7249 154.038L95.2777 94.4662C95.6284 93.8245 96.3014 93.4253 97.0328 93.4253H128.322C129.825 93.4253 130.791 95.0216 130.094 96.3533L110.234 134.268C109.536 135.6 110.502 137.196 112.005 137.196H135.144C136.873 137.196 137.787 139.241 136.634 140.53L69.9263 215.086C68.4518 216.734 65.7883 215.124 66.5623 213.052L86.5003 159.697C86.9887 158.39 86.0222 156.997 84.6268 156.997H64.4799C62.9611 156.997 61.9966 155.371 62.7249 154.038Z" fill="url(#paint0_linear_119_474)"/>
<path d="M62.7249 154.038L63.6024 154.517L96.1552 94.9458C96.3306 94.6249 96.6671 94.4253 97.0328 94.4253H128.322C129.074 94.4253 129.557 95.2235 129.208 95.8893L109.348 133.804C108.301 135.801 109.75 138.196 112.005 138.196H135.144C136.008 138.196 136.466 139.219 135.889 139.863L69.181 214.419C68.4438 215.243 67.112 214.438 67.4991 213.402L87.437 160.047C88.1697 158.086 86.72 155.997 84.6268 155.997H64.4799C63.7205 155.997 63.2383 155.184 63.6024 154.517L62.7249 154.038Z" stroke="url(#paint1_linear_119_474)" stroke-width="2"/>
</g>
<g filter="url(#filter1_bd_119_474)">
<mask id="path-3-inside-1_119_474" fill="white">
<path fill-rule="evenodd" clip-rule="evenodd" d="M144.133 128.856C144.249 128.858 144.365 128.858 144.481 128.858C160.98 128.858 174.356 115.483 174.356 98.9831C174.356 82.4834 160.98 69.1079 144.481 69.1079C144.365 69.1079 144.249 69.1085 144.133 69.1098V69.1079H136.415C136.694 67.0634 136.838 64.976 136.838 62.855C136.838 37.53 116.308 17 90.9832 17C65.6582 17 45.1283 37.53 45.1283 62.855C45.1283 65.2446 45.311 67.5914 45.6634 69.8824C43.4826 69.3757 41.2102 69.1079 38.8752 69.1079C22.3756 69.1079 9 82.4834 9 98.9831C9 115.483 22.3756 128.858 38.8752 128.858C38.9917 128.858 39.1081 128.858 39.2243 128.856L39.2228 128.858H144.133V128.856Z"/>
</mask>
<path fill-rule="evenodd" clip-rule="evenodd" d="M144.133 128.856C144.249 128.858 144.365 128.858 144.481 128.858C160.98 128.858 174.356 115.483 174.356 98.9831C174.356 82.4834 160.98 69.1079 144.481 69.1079C144.365 69.1079 144.249 69.1085 144.133 69.1098V69.1079H136.415C136.694 67.0634 136.838 64.976 136.838 62.855C136.838 37.53 116.308 17 90.9832 17C65.6582 17 45.1283 37.53 45.1283 62.855C45.1283 65.2446 45.311 67.5914 45.6634 69.8824C43.4826 69.3757 41.2102 69.1079 38.8752 69.1079C22.3756 69.1079 9 82.4834 9 98.9831C9 115.483 22.3756 128.858 38.8752 128.858C38.9917 128.858 39.1081 128.858 39.2243 128.856L39.2228 128.858H144.133V128.856Z" fill="url(#paint2_linear_119_474)" shape-rendering="crispEdges"/>
<path d="M144.133 128.856L144.156 126.856C143.622 126.85 143.107 127.058 142.727 127.434C142.347 127.81 142.133 128.322 142.133 128.856H144.133ZM144.133 69.1098H142.133C142.133 69.6442 142.347 70.1564 142.727 70.5321C143.107 70.9078 143.622 71.1158 144.156 71.1097L144.133 69.1098ZM144.133 69.1079H146.133C146.133 68.0033 145.238 67.1079 144.133 67.1079V69.1079ZM136.415 69.1079L134.434 68.8377C134.356 69.4099 134.529 69.988 134.909 70.4231C135.289 70.8582 135.838 71.1079 136.415 71.1079V69.1079ZM45.6634 69.8824L45.2108 71.8305C45.8573 71.9808 46.5363 71.8004 47.0231 71.3491C47.5099 70.8979 47.741 70.2345 47.6401 69.5784L45.6634 69.8824ZM39.2243 128.856L40.7951 130.094C41.2719 129.489 41.3589 128.664 41.0188 127.973C40.6786 127.282 39.9718 126.848 39.2015 126.856L39.2243 128.856ZM39.2228 128.858L37.652 127.62C37.1777 128.222 37.0889 129.042 37.4233 129.731C37.7577 130.421 38.4566 130.858 39.2228 130.858V128.858ZM144.133 128.858V130.858C145.238 130.858 146.133 129.963 146.133 128.858H144.133ZM144.111 130.856C144.234 130.858 144.357 130.858 144.481 130.858V126.858C144.372 126.858 144.264 126.858 144.156 126.856L144.111 130.856ZM144.481 130.858C162.085 130.858 176.356 116.587 176.356 98.9831H172.356C172.356 114.378 159.876 126.858 144.481 126.858V130.858ZM176.356 98.9831C176.356 81.3789 162.085 67.1079 144.481 67.1079V71.1079C159.876 71.1079 172.356 83.588 172.356 98.9831H176.356ZM144.481 67.1079C144.357 67.1079 144.234 67.1086 144.111 67.11L144.156 71.1097C144.264 71.1085 144.372 71.1079 144.481 71.1079V67.1079ZM142.133 69.1079V69.1098H146.133V69.1079H142.133ZM136.415 71.1079H144.133V67.1079H136.415V71.1079ZM138.397 69.378C138.688 67.2443 138.838 65.0666 138.838 62.855H134.838C134.838 64.8854 134.7 66.8825 134.434 68.8377L138.397 69.378ZM138.838 62.855C138.838 36.4254 117.413 15 90.9832 15V19C115.204 19 134.838 38.6345 134.838 62.855H138.838ZM90.9832 15C64.5537 15 43.1283 36.4254 43.1283 62.855H47.1283C47.1283 38.6345 66.7628 19 90.9832 19V15ZM43.1283 62.855C43.1283 65.3467 43.3189 67.7952 43.6866 70.1864L47.6401 69.5784C47.3032 67.3877 47.1283 65.1424 47.1283 62.855H43.1283ZM46.116 67.9343C43.7879 67.3934 41.3636 67.1079 38.8752 67.1079V71.1079C41.0567 71.1079 43.1773 71.3581 45.2108 71.8305L46.116 67.9343ZM38.8752 67.1079C21.271 67.1079 7 81.3789 7 98.9831H11C11 83.588 23.4802 71.1079 38.8752 71.1079V67.1079ZM7 98.9831C7 116.587 21.271 130.858 38.8752 130.858V126.858C23.4802 126.858 11 114.378 11 98.9831H7ZM38.8752 130.858C38.9994 130.858 39.1234 130.858 39.2472 130.856L39.2015 126.856C39.0928 126.858 38.9841 126.858 38.8752 126.858V130.858ZM40.7935 130.096L40.7951 130.094L37.6536 127.618L37.652 127.62L40.7935 130.096ZM144.133 126.858H39.2228V130.858H144.133V126.858ZM142.133 128.856V128.858H146.133V128.856H142.133Z" fill="url(#paint3_linear_119_474)" mask="url(#path-3-inside-1_119_474)"/>
</g>
<g filter="url(#filter2_bd_119_474)">
<mask id="path-5-inside-2_119_474" fill="white">
<path fill-rule="evenodd" clip-rule="evenodd" d="M198.369 97.8375C198.453 97.8384 198.536 97.8389 198.62 97.8389C210.544 97.8389 220.211 88.1725 220.211 76.2484C220.211 64.3243 210.544 54.6579 198.62 54.6579C198.536 54.6579 198.453 54.6584 198.369 54.6594V54.6579H192.791C192.993 53.1804 193.097 51.6718 193.097 50.1389C193.097 31.8368 178.26 17 159.958 17C141.656 17 126.819 31.8368 126.819 50.1389C126.819 51.8659 126.951 53.562 127.206 55.2177C125.63 54.8515 123.988 54.6579 122.3 54.6579C110.376 54.6579 100.71 64.3243 100.71 76.2484C100.71 88.1725 110.376 97.8389 122.3 97.8389C122.385 97.8389 122.469 97.8384 122.553 97.8375L122.552 97.8389H198.369V97.8375Z"/>
</mask>
<path fill-rule="evenodd" clip-rule="evenodd" d="M198.369 97.8375C198.453 97.8384 198.536 97.8389 198.62 97.8389C210.544 97.8389 220.211 88.1725 220.211 76.2484C220.211 64.3243 210.544 54.6579 198.62 54.6579C198.536 54.6579 198.453 54.6584 198.369 54.6594V54.6579H192.791C192.993 53.1804 193.097 51.6718 193.097 50.1389C193.097 31.8368 178.26 17 159.958 17C141.656 17 126.819 31.8368 126.819 50.1389C126.819 51.8659 126.951 53.562 127.206 55.2177C125.63 54.8515 123.988 54.6579 122.3 54.6579C110.376 54.6579 100.71 64.3243 100.71 76.2484C100.71 88.1725 110.376 97.8389 122.3 97.8389C122.385 97.8389 122.469 97.8384 122.553 97.8375L122.552 97.8389H198.369V97.8375Z" fill="url(#paint4_linear_119_474)" shape-rendering="crispEdges"/>
<path d="M198.369 97.8375L198.392 95.8376C197.858 95.8316 197.343 96.0396 196.963 96.4153C196.583 96.791 196.369 97.3031 196.369 97.8375H198.369ZM198.369 54.6594H196.369C196.369 55.1938 196.583 55.7059 196.963 56.0816C197.343 56.4573 197.858 56.6653 198.392 56.6592L198.369 54.6594ZM198.369 54.6579H200.369C200.369 53.5534 199.474 52.6579 198.369 52.6579V54.6579ZM192.791 54.6579L190.81 54.3877C190.732 54.96 190.905 55.5381 191.285 55.9732C191.664 56.4083 192.214 56.6579 192.791 56.6579V54.6579ZM127.206 55.2177L126.753 57.1658C127.4 57.316 128.079 57.1356 128.566 56.6844C129.052 56.2331 129.284 55.5697 129.183 54.9136L127.206 55.2177ZM122.553 97.8375L124.122 99.077C124.6 98.4722 124.688 97.6467 124.348 96.9551C124.008 96.2635 123.301 95.8288 122.53 95.8376L122.553 97.8375ZM122.552 97.8389L120.982 96.5994C120.507 97.201 120.418 98.0212 120.752 98.711C121.086 99.4008 121.785 99.8389 122.552 99.8389V97.8389ZM198.369 97.8389V99.8389C199.474 99.8389 200.369 98.9435 200.369 97.8389H198.369ZM198.347 99.8374C198.438 99.8384 198.529 99.8389 198.62 99.8389V95.8389C198.544 95.8389 198.468 95.8385 198.392 95.8376L198.347 99.8374ZM198.62 99.8389C211.649 99.8389 222.211 89.2771 222.211 76.2484H218.211C218.211 87.068 209.44 95.8389 198.62 95.8389V99.8389ZM222.211 76.2484C222.211 63.2198 211.649 52.6579 198.62 52.6579V56.6579C209.44 56.6579 218.211 65.4289 218.211 76.2484H222.211ZM198.62 52.6579C198.529 52.6579 198.438 52.6585 198.347 52.6595L198.392 56.6592C198.468 56.6584 198.544 56.6579 198.62 56.6579V52.6579ZM196.369 54.6579V54.6594H200.369V54.6579H196.369ZM192.791 56.6579H198.369V52.6579H192.791V56.6579ZM194.773 54.9282C194.987 53.3613 195.097 51.7624 195.097 50.1389H191.097C191.097 51.5811 190.999 52.9995 190.81 54.3877L194.773 54.9282ZM195.097 50.1389C195.097 30.7322 179.365 15 159.958 15V19C177.156 19 191.097 32.9414 191.097 50.1389H195.097ZM159.958 15C140.551 15 124.819 30.7322 124.819 50.1389H128.819C128.819 32.9414 142.761 19 159.958 19V15ZM124.819 50.1389C124.819 51.968 124.959 53.7657 125.229 55.5217L129.183 54.9136C128.943 53.3582 128.819 51.7637 128.819 50.1389H124.819ZM127.659 53.2695C125.935 52.8692 124.141 52.6579 122.3 52.6579V56.6579C123.834 56.6579 125.325 56.8339 126.753 57.1658L127.659 53.2695ZM122.3 52.6579C109.272 52.6579 98.71 63.2198 98.71 76.2484H102.71C102.71 65.4289 111.481 56.6579 122.3 56.6579V52.6579ZM98.71 76.2484C98.71 89.2771 109.272 99.8389 122.3 99.8389V95.8389C111.481 95.8389 102.71 87.068 102.71 76.2484H98.71ZM122.3 99.8389C122.392 99.8389 122.484 99.8384 122.576 99.8374L122.53 95.8376C122.454 95.8385 122.377 95.8389 122.3 95.8389V99.8389ZM124.121 99.0784L124.122 99.077L120.983 96.598L120.982 96.5994L124.121 99.0784ZM198.369 95.8389H122.552V99.8389H198.369V95.8389ZM196.369 97.8375V97.8389H200.369V97.8375H196.369Z" fill="url(#paint5_linear_119_474)" mask="url(#path-5-inside-2_119_474)"/>
</g>
</g>
<defs>
<filter id="filter0_bdd_119_474" x="1.47705" y="53.4253" width="175.671" height="209.34" filterUnits="userSpaceOnUse" color-interpolation-filters="sRGB">
<feFlood flood-opacity="0" result="BackgroundImageFix"/>
<feGaussianBlur in="BackgroundImageFix" stdDeviation="7"/>
<feComposite in2="SourceAlpha" operator="in" result="effect1_backgroundBlur_119_474"/>
<feColorMatrix in="SourceAlpha" type="matrix" values="0 0 0 0 0 0 0 0 0 0 0 0 0 0 0 0 0 0 127 0" result="hardAlpha"/>
<feOffset dx="-21" dy="7"/>
<feGaussianBlur stdDeviation="20"/>
<feComposite in2="hardAlpha" operator="out"/>
<feColorMatrix type="matrix" values="0 0 0 0 0.113438 0 0 0 0 0.148981 0 0 0 0 0.275 0 0 0 0.25 0"/>
<feBlend mode="normal" in2="effect1_backgroundBlur_119_474" result="effect2_dropShadow_119_474"/>
<feColorMatrix in="SourceAlpha" type="matrix" values="0 0 0 0 0 0 0 0 0 0 0 0 0 0 0 0 0 0 127 0" result="hardAlpha"/>
<feOffset/>
<feGaussianBlur stdDeviation="20"/>
<feComposite in2="hardAlpha" operator="out"/>
<feColorMatrix type="matrix" values="0 0 0 0 1 0 0 0 0 0.721569 0 0 0 0 0.00392157 0 0 0 0.49 0"/>
<feBlend mode="normal" in2="effect2_dropShadow_119_474" result="effect3_dropShadow_119_474"/>
<feBlend mode="normal" in="SourceGraphic" in2="effect3_dropShadow_119_474" result="shape"/>
</filter>
<filter id="filter1_bd_119_474" x="-9" y="3" width="215.356" height="165.858" filterUnits="userSpaceOnUse" color-interpolation-filters="sRGB">
<feFlood flood-opacity="0" result="BackgroundImageFix"/>
<feGaussianBlur in="BackgroundImageFix" stdDeviation="7"/>
<feComposite in2="SourceAlpha" operator="in" result="effect1_backgroundBlur_119_474"/>
<feColorMatrix in="SourceAlpha" type="matrix" values="0 0 0 0 0 0 0 0 0 0 0 0 0 0 0 0 0 0 127 0" result="hardAlpha"/>
<feOffset dx="7" dy="15"/>
<feGaussianBlur stdDeviation="12.5"/>
<feComposite in2="hardAlpha" operator="out"/>
<feColorMatrix type="matrix" values="0 0 0 0 0.113725 0 0 0 0 0.14902 0 0 0 0 0.27451 0 0 0 0.25 0"/>
<feBlend mode="normal" in2="effect1_backgroundBlur_119_474" result="effect2_dropShadow_119_474"/>
<feBlend mode="normal" in="SourceGraphic" in2="effect2_dropShadow_119_474" result="shape"/>
</filter>
<filter id="filter2_bd_119_474" x="63.71" y="1" width="170.5" height="130.839" filterUnits="userSpaceOnUse" color-interpolation-filters="sRGB">
<feFlood flood-opacity="0" result="BackgroundImageFix"/>
<feGaussianBlur in="BackgroundImageFix" stdDeviation="7"/>
<feComposite in2="SourceAlpha" operator="in" result="effect1_backgroundBlur_119_474"/>
<feColorMatrix in="SourceAlpha" type="matrix" values="0 0 0 0 0 0 0 0 0 0 0 0 0 0 0 0 0 0 127 0" result="hardAlpha"/>
<feOffset dx="-12" dy="9"/>
<feGaussianBlur stdDeviation="12.5"/>
<feComposite in2="hardAlpha" operator="out"/>
<feColorMatrix type="matrix" values="0 0 0 0 0.113438 0 0 0 0 0.148981 0 0 0 0 0.275 0 0 0 0.25 0"/>
<feBlend mode="normal" in2="effect1_backgroundBlur_119_474" result="effect2_dropShadow_119_474"/>
<feBlend mode="normal" in="SourceGraphic" in2="effect2_dropShadow_119_474" result="shape"/>
</filter>
<linearGradient id="paint0_linear_119_474" x1="108.005" y1="101.068" x2="90.6357" y2="176.451" gradientUnits="userSpaceOnUse">
<stop stop-color="#FF4D00"/>
<stop offset="1" stop-color="#FFB800"/>
</linearGradient>
<linearGradient id="paint1_linear_119_474" x1="84.7302" y1="175.408" x2="116.342" y2="107.668" gradientUnits="userSpaceOnUse">
<stop stop-color="white"/>
<stop offset="1" stop-color="white" stop-opacity="0"/>
</linearGradient>
<linearGradient id="paint2_linear_119_474" x1="91.6779" y1="-18.7808" x2="91.6779" y2="144.491" gradientUnits="userSpaceOnUse">
<stop stop-color="white"/>
<stop offset="1" stop-color="white" stop-opacity="0"/>
</linearGradient>
<linearGradient id="paint3_linear_119_474" x1="91.6779" y1="17" x2="91.6779" y2="128.858" gradientUnits="userSpaceOnUse">
<stop stop-color="white"/>
<stop offset="1" stop-color="white" stop-opacity="0"/>
</linearGradient>
<linearGradient id="paint4_linear_119_474" x1="166.019" y1="19.4317" x2="166.019" y2="106.973" gradientUnits="userSpaceOnUse">
<stop stop-color="white"/>
<stop offset="1" stop-color="white" stop-opacity="0"/>
</linearGradient>
<linearGradient id="paint5_linear_119_474" x1="160.46" y1="17" x2="160.46" y2="97.8388" gradientUnits="userSpaceOnUse">
<stop stop-color="white"/>
<stop offset="1" stop-color="white" stop-opacity="0"/>
</linearGradient>
<clipPath id="clip0_119_474">
<rect width="240" height="240" fill="white"/>
</clipPath>
</defs>
</svg>
